<?xml version="1.0" encoding="utf-8" standalone="no"?>
<!DOCTYPE svg PUBLIC "-//W3C//DTD SVG 1.1//EN"
  "http://www.w3.org/Graphics/SVG/1.1/DTD/svg11.dtd">
<svg xmlns:xlink="http://www.w3.org/1999/xlink" width="864pt" height="324pt" viewBox="0 0 864 324" xmlns="http://www.w3.org/2000/svg" version="1.1">
 <metadata>
  <rdf:RDF xmlns:dc="http://purl.org/dc/elements/1.1/" xmlns:cc="http://creativecommons.org/ns#" xmlns:rdf="http://www.w3.org/1999/02/22-rdf-syntax-ns#">
   <cc:Work>
    <dc:type rdf:resource="http://purl.org/dc/dcmitype/StillImage"/>
    <dc:format>image/svg+xml</dc:format>
    <dc:creator>
     <cc:Agent>
      <dc:title>Matplotlib v3.10.8, https://matplotlib.org/</dc:title>
     </cc:Agent>
    </dc:creator>
   </cc:Work>
  </rdf:RDF>
 </metadata>
 <defs>
  <style type="text/css">*{stroke-linejoin: round; stroke-linecap: butt}</style>
 </defs>
 <g id="figure_1">
  <g id="patch_1">
   <path d="M 0 324
L 864 324
L 864 0
L 0 0
z
" style="fill: #ffffff"/>
  </g>
  <g id="axes_1">
   <g id="patch_2">
    <path d="M 45.94399 290.64351
L 419.687889 290.64351
L 419.687889 38.636032
L 45.94399 38.636032
z
" style="fill: #ffffff"/>
   </g>
   <g id="patch_3">
    <path d="M 62.932349 290.64351
L 63.380582 290.64351
L 63.380582 38.636032
L 62.932349 38.636032
z
" clip-path="url(#pd4410654b9)" style="fill: #f1f5f9; opacity: 0.45"/>
   </g>
   <g id="patch_4">
    <path d="M 63.487095 290.64351
L 402.269109 290.64351
L 402.269109 38.636032
L 63.487095 38.636032
z
" clip-path="url(#pd4410654b9)" style="fill: #ccfbf1; opacity: 0.45"/>
   </g>
   <g id="patch_5">
    <path d="M 402.47497 290.64351
L 402.69953 290.64351
L 402.69953 38.636032
L 402.47497 38.636032
z
" clip-path="url(#pd4410654b9)" style="fill: #f1f5f9; opacity: 0.45"/>
   </g>
   <g id="matplotlib.axis_1">
    <g id="xtick_1">
     <g id="line2d_1">
      <defs>
       <path id="mf74ef1a993" d="M 0 0
L 0 3.5
" style="stroke: #000000; stroke-width: 0.8"/>
      </defs>
      <g>
       <use xlink:href="#mf74ef1a993" x="62.92541" y="290.64351" style="stroke: #000000; stroke-width: 0.8"/>
      </g>
     </g>
     <g id="text_1">
      <!-- 0.0 -->
      <g transform="translate(54.973847 305.241947) scale(0.1 -0.1)">
       <defs>
        <path id="DejaVuSans-30" d="M 2034 4250
Q 1547 4250 1301 3770
Q 1056 3291 1056 2328
Q 1056 1369 1301 889
Q 1547 409 2034 409
Q 2525 409 2770 889
Q 3016 1369 3016 2328
Q 3016 3291 2770 3770
Q 2525 4250 2034 4250
z
M 2034 4750
Q 2819 4750 3233 4129
Q 3647 3509 3647 2328
Q 3647 1150 3233 529
Q 2819 -91 2034 -91
Q 1250 -91 836 529
Q 422 1150 422 2328
Q 422 3509 836 4129
Q 1250 4750 2034 4750
z
" transform="scale(0.015625)"/>
        <path id="DejaVuSans-2e" d="M 684 794
L 1344 794
L 1344 0
L 684 0
L 684 794
z
" transform="scale(0.015625)"/>
       </defs>
       <use xlink:href="#DejaVuSans-30"/>
       <use xlink:href="#DejaVuSans-2e" transform="translate(63.623047 0)"/>
       <use xlink:href="#DejaVuSans-30" transform="translate(95.410156 0)"/>
      </g>
     </g>
    </g>
    <g id="xtick_2">
     <g id="line2d_2">
      <g>
       <use xlink:href="#mf74ef1a993" x="128.631165" y="290.64351" style="stroke: #000000; stroke-width: 0.8"/>
      </g>
     </g>
     <g id="text_2">
      <!-- 0.1 -->
      <g transform="translate(120.679603 305.241947) scale(0.1 -0.1)">
       <defs>
        <path id="DejaVuSans-31" d="M 794 531
L 1825 531
L 1825 4091
L 703 3866
L 703 4441
L 1819 4666
L 2450 4666
L 2450 531
L 3481 531
L 3481 0
L 794 0
L 794 531
z
" transform="scale(0.015625)"/>
       </defs>
       <use xlink:href="#DejaVuSans-30"/>
       <use xlink:href="#DejaVuSans-2e" transform="translate(63.623047 0)"/>
       <use xlink:href="#DejaVuSans-31" transform="translate(95.410156 0)"/>
      </g>
     </g>
    </g>
    <g id="xtick_3">
     <g id="line2d_3">
      <g>
       <use xlink:href="#mf74ef1a993" x="194.336921" y="290.64351" style="stroke: #000000; stroke-width: 0.8"/>
      </g>
     </g>
     <g id="text_3">
      <!-- 0.2 -->
      <g transform="translate(186.385358 305.241947) scale(0.1 -0.1)">
       <defs>
        <path id="DejaVuSans-32" d="M 1228 531
L 3431 531
L 3431 0
L 469 0
L 469 531
Q 828 903 1448 1529
Q 2069 2156 2228 2338
Q 2531 2678 2651 2914
Q 2772 3150 2772 3378
Q 2772 3750 2511 3984
Q 2250 4219 1831 4219
Q 1534 4219 1204 4116
Q 875 4013 500 3803
L 500 4441
Q 881 4594 1212 4672
Q 1544 4750 1819 4750
Q 2544 4750 2975 4387
Q 3406 4025 3406 3419
Q 3406 3131 3298 2873
Q 3191 2616 2906 2266
Q 2828 2175 2409 1742
Q 1991 1309 1228 531
z
" transform="scale(0.015625)"/>
       </defs>
       <use xlink:href="#DejaVuSans-30"/>
       <use xlink:href="#DejaVuSans-2e" transform="translate(63.623047 0)"/>
       <use xlink:href="#DejaVuSans-32" transform="translate(95.410156 0)"/>
      </g>
     </g>
    </g>
    <g id="xtick_4">
     <g id="line2d_4">
      <g>
       <use xlink:href="#mf74ef1a993" x="260.042677" y="290.64351" style="stroke: #000000; stroke-width: 0.8"/>
      </g>
     </g>
     <g id="text_4">
      <!-- 0.3 -->
      <g transform="translate(252.091114 305.241947) scale(0.1 -0.1)">
       <defs>
        <path id="DejaVuSans-33" d="M 2597 2516
Q 3050 2419 3304 2112
Q 3559 1806 3559 1356
Q 3559 666 3084 287
Q 2609 -91 1734 -91
Q 1441 -91 1130 -33
Q 819 25 488 141
L 488 750
Q 750 597 1062 519
Q 1375 441 1716 441
Q 2309 441 2620 675
Q 2931 909 2931 1356
Q 2931 1769 2642 2001
Q 2353 2234 1838 2234
L 1294 2234
L 1294 2753
L 1863 2753
Q 2328 2753 2575 2939
Q 2822 3125 2822 3475
Q 2822 3834 2567 4026
Q 2313 4219 1838 4219
Q 1578 4219 1281 4162
Q 984 4106 628 3988
L 628 4550
Q 988 4650 1302 4700
Q 1616 4750 1894 4750
Q 2613 4750 3031 4423
Q 3450 4097 3450 3541
Q 3450 3153 3228 2886
Q 3006 2619 2597 2516
z
" transform="scale(0.015625)"/>
       </defs>
       <use xlink:href="#DejaVuSans-30"/>
       <use xlink:href="#DejaVuSans-2e" transform="translate(63.623047 0)"/>
       <use xlink:href="#DejaVuSans-33" transform="translate(95.410156 0)"/>
      </g>
     </g>
    </g>
    <g id="xtick_5">
     <g id="line2d_5">
      <g>
       <use xlink:href="#mf74ef1a993" x="325.748432" y="290.64351" style="stroke: #000000; stroke-width: 0.8"/>
      </g>
     </g>
     <g id="text_5">
      <!-- 0.4 -->
      <g transform="translate(317.79687 305.241947) scale(0.1 -0.1)">
       <defs>
        <path id="DejaVuSans-34" d="M 2419 4116
L 825 1625
L 2419 1625
L 2419 4116
z
M 2253 4666
L 3047 4666
L 3047 1625
L 3713 1625
L 3713 1100
L 3047 1100
L 3047 0
L 2419 0
L 2419 1100
L 313 1100
L 313 1709
L 2253 4666
z
" transform="scale(0.015625)"/>
       </defs>
       <use xlink:href="#DejaVuSans-30"/>
       <use xlink:href="#DejaVuSans-2e" transform="translate(63.623047 0)"/>
       <use xlink:href="#DejaVuSans-34" transform="translate(95.410156 0)"/>
      </g>
     </g>
    </g>
    <g id="xtick_6">
     <g id="line2d_6">
      <g>
       <use xlink:href="#mf74ef1a993" x="391.454188" y="290.64351" style="stroke: #000000; stroke-width: 0.8"/>
      </g>
     </g>
     <g id="text_6">
      <!-- 0.5 -->
      <g transform="translate(383.502625 305.241947) scale(0.1 -0.1)">
       <defs>
        <path id="DejaVuSans-35" d="M 691 4666
L 3169 4666
L 3169 4134
L 1269 4134
L 1269 2991
Q 1406 3038 1543 3061
Q 1681 3084 1819 3084
Q 2600 3084 3056 2656
Q 3513 2228 3513 1497
Q 3513 744 3044 326
Q 2575 -91 1722 -91
Q 1428 -91 1123 -41
Q 819 9 494 109
L 494 744
Q 775 591 1075 516
Q 1375 441 1709 441
Q 2250 441 2565 725
Q 2881 1009 2881 1497
Q 2881 1984 2565 2268
Q 2250 2553 1709 2553
Q 1456 2553 1204 2497
Q 953 2441 691 2322
L 691 4666
z
" transform="scale(0.015625)"/>
       </defs>
       <use xlink:href="#DejaVuSans-30"/>
       <use xlink:href="#DejaVuSans-2e" transform="translate(63.623047 0)"/>
       <use xlink:href="#DejaVuSans-35" transform="translate(95.410156 0)"/>
      </g>
     </g>
    </g>
    <g id="text_7">
     <!-- Elapsed time (s) -->
     <g transform="translate(192.193283 318.920073) scale(0.1 -0.1)">
      <defs>
       <path id="DejaVuSans-45" d="M 628 4666
L 3578 4666
L 3578 4134
L 1259 4134
L 1259 2753
L 3481 2753
L 3481 2222
L 1259 2222
L 1259 531
L 3634 531
L 3634 0
L 628 0
L 628 4666
z
" transform="scale(0.015625)"/>
       <path id="DejaVuSans-6c" d="M 603 4863
L 1178 4863
L 1178 0
L 603 0
L 603 4863
z
" transform="scale(0.015625)"/>
       <path id="DejaVuSans-61" d="M 2194 1759
Q 1497 1759 1228 1600
Q 959 1441 959 1056
Q 959 750 1161 570
Q 1363 391 1709 391
Q 2188 391 2477 730
Q 2766 1069 2766 1631
L 2766 1759
L 2194 1759
z
M 3341 1997
L 3341 0
L 2766 0
L 2766 531
Q 2569 213 2275 61
Q 1981 -91 1556 -91
Q 1019 -91 701 211
Q 384 513 384 1019
Q 384 1609 779 1909
Q 1175 2209 1959 2209
L 2766 2209
L 2766 2266
Q 2766 2663 2505 2880
Q 2244 3097 1772 3097
Q 1472 3097 1187 3025
Q 903 2953 641 2809
L 641 3341
Q 956 3463 1253 3523
Q 1550 3584 1831 3584
Q 2591 3584 2966 3190
Q 3341 2797 3341 1997
z
" transform="scale(0.015625)"/>
       <path id="DejaVuSans-70" d="M 1159 525
L 1159 -1331
L 581 -1331
L 581 3500
L 1159 3500
L 1159 2969
Q 1341 3281 1617 3432
Q 1894 3584 2278 3584
Q 2916 3584 3314 3078
Q 3713 2572 3713 1747
Q 3713 922 3314 415
Q 2916 -91 2278 -91
Q 1894 -91 1617 61
Q 1341 213 1159 525
z
M 3116 1747
Q 3116 2381 2855 2742
Q 2594 3103 2138 3103
Q 1681 3103 1420 2742
Q 1159 2381 1159 1747
Q 1159 1113 1420 752
Q 1681 391 2138 391
Q 2594 391 2855 752
Q 3116 1113 3116 1747
z
" transform="scale(0.015625)"/>
       <path id="DejaVuSans-73" d="M 2834 3397
L 2834 2853
Q 2591 2978 2328 3040
Q 2066 3103 1784 3103
Q 1356 3103 1142 2972
Q 928 2841 928 2578
Q 928 2378 1081 2264
Q 1234 2150 1697 2047
L 1894 2003
Q 2506 1872 2764 1633
Q 3022 1394 3022 966
Q 3022 478 2636 193
Q 2250 -91 1575 -91
Q 1294 -91 989 -36
Q 684 19 347 128
L 347 722
Q 666 556 975 473
Q 1284 391 1588 391
Q 1994 391 2212 530
Q 2431 669 2431 922
Q 2431 1156 2273 1281
Q 2116 1406 1581 1522
L 1381 1569
Q 847 1681 609 1914
Q 372 2147 372 2553
Q 372 3047 722 3315
Q 1072 3584 1716 3584
Q 2034 3584 2315 3537
Q 2597 3491 2834 3397
z
" transform="scale(0.015625)"/>
       <path id="DejaVuSans-65" d="M 3597 1894
L 3597 1613
L 953 1613
Q 991 1019 1311 708
Q 1631 397 2203 397
Q 2534 397 2845 478
Q 3156 559 3463 722
L 3463 178
Q 3153 47 2828 -22
Q 2503 -91 2169 -91
Q 1331 -91 842 396
Q 353 884 353 1716
Q 353 2575 817 3079
Q 1281 3584 2069 3584
Q 2775 3584 3186 3129
Q 3597 2675 3597 1894
z
M 3022 2063
Q 3016 2534 2758 2815
Q 2500 3097 2075 3097
Q 1594 3097 1305 2825
Q 1016 2553 972 2059
L 3022 2063
z
" transform="scale(0.015625)"/>
       <path id="DejaVuSans-64" d="M 2906 2969
L 2906 4863
L 3481 4863
L 3481 0
L 2906 0
L 2906 525
Q 2725 213 2448 61
Q 2172 -91 1784 -91
Q 1150 -91 751 415
Q 353 922 353 1747
Q 353 2572 751 3078
Q 1150 3584 1784 3584
Q 2172 3584 2448 3432
Q 2725 3281 2906 2969
z
M 947 1747
Q 947 1113 1208 752
Q 1469 391 1925 391
Q 2381 391 2643 752
Q 2906 1113 2906 1747
Q 2906 2381 2643 2742
Q 2381 3103 1925 3103
Q 1469 3103 1208 2742
Q 947 2381 947 1747
z
" transform="scale(0.015625)"/>
       <path id="DejaVuSans-20" transform="scale(0.015625)"/>
       <path id="DejaVuSans-74" d="M 1172 4494
L 1172 3500
L 2356 3500
L 2356 3053
L 1172 3053
L 1172 1153
Q 1172 725 1289 603
Q 1406 481 1766 481
L 2356 481
L 2356 0
L 1766 0
Q 1100 0 847 248
Q 594 497 594 1153
L 594 3053
L 172 3053
L 172 3500
L 594 3500
L 594 4494
L 1172 4494
z
" transform="scale(0.015625)"/>
       <path id="DejaVuSans-69" d="M 603 3500
L 1178 3500
L 1178 0
L 603 0
L 603 3500
z
M 603 4863
L 1178 4863
L 1178 4134
L 603 4134
L 603 4863
z
" transform="scale(0.015625)"/>
       <path id="DejaVuSans-6d" d="M 3328 2828
Q 3544 3216 3844 3400
Q 4144 3584 4550 3584
Q 5097 3584 5394 3201
Q 5691 2819 5691 2113
L 5691 0
L 5113 0
L 5113 2094
Q 5113 2597 4934 2840
Q 4756 3084 4391 3084
Q 3944 3084 3684 2787
Q 3425 2491 3425 1978
L 3425 0
L 2847 0
L 2847 2094
Q 2847 2600 2669 2842
Q 2491 3084 2119 3084
Q 1678 3084 1418 2786
Q 1159 2488 1159 1978
L 1159 0
L 581 0
L 581 3500
L 1159 3500
L 1159 2956
Q 1356 3278 1631 3431
Q 1906 3584 2284 3584
Q 2666 3584 2933 3390
Q 3200 3197 3328 2828
z
" transform="scale(0.015625)"/>
       <path id="DejaVuSans-28" d="M 1984 4856
Q 1566 4138 1362 3434
Q 1159 2731 1159 2009
Q 1159 1288 1364 580
Q 1569 -128 1984 -844
L 1484 -844
Q 1016 -109 783 600
Q 550 1309 550 2009
Q 550 2706 781 3412
Q 1013 4119 1484 4856
L 1984 4856
z
" transform="scale(0.015625)"/>
       <path id="DejaVuSans-29" d="M 513 4856
L 1013 4856
Q 1481 4119 1714 3412
Q 1947 2706 1947 2009
Q 1947 1309 1714 600
Q 1481 -109 1013 -844
L 513 -844
Q 928 -128 1133 580
Q 1338 1288 1338 2009
Q 1338 2731 1133 3434
Q 928 4138 513 4856
z
" transform="scale(0.015625)"/>
      </defs>
      <use xlink:href="#DejaVuSans-45"/>
      <use xlink:href="#DejaVuSans-6c" transform="translate(63.183594 0)"/>
      <use xlink:href="#DejaVuSans-61" transform="translate(90.966797 0)"/>
      <use xlink:href="#DejaVuSans-70" transform="translate(152.246094 0)"/>
      <use xlink:href="#DejaVuSans-73" transform="translate(215.722656 0)"/>
      <use xlink:href="#DejaVuSans-65" transform="translate(267.822266 0)"/>
      <use xlink:href="#DejaVuSans-64" transform="translate(329.345703 0)"/>
      <use xlink:href="#DejaVuSans-20" transform="translate(392.822266 0)"/>
      <use xlink:href="#DejaVuSans-74" transform="translate(424.609375 0)"/>
      <use xlink:href="#DejaVuSans-69" transform="translate(463.818359 0)"/>
      <use xlink:href="#DejaVuSans-6d" transform="translate(491.601562 0)"/>
      <use xlink:href="#DejaVuSans-65" transform="translate(589.013672 0)"/>
      <use xlink:href="#DejaVuSans-20" transform="translate(650.537109 0)"/>
      <use xlink:href="#DejaVuSans-28" transform="translate(682.324219 0)"/>
      <use xlink:href="#DejaVuSans-73" transform="translate(721.337891 0)"/>
      <use xlink:href="#DejaVuSans-29" transform="translate(773.4375 0)"/>
     </g>
    </g>
   </g>
   <g id="matplotlib.axis_2">
    <g id="ytick_1">
     <g id="line2d_7">
      <path d="M 45.94399 288.880347
L 419.687889 288.880347
" clip-path="url(#pd4410654b9)" style="fill: none; stroke: #b0b0b0; stroke-opacity: 0.2; stroke-width: 0.8; stroke-linecap: square"/>
     </g>
     <g id="line2d_8">
      <defs>
       <path id="mcf07788e78" d="M 0 0
L -3.5 0
" style="stroke: #000000; stroke-width: 0.8"/>
      </defs>
      <g>
       <use xlink:href="#mcf07788e78" x="45.94399" y="288.880347" style="stroke: #000000; stroke-width: 0.8"/>
      </g>
     </g>
     <g id="text_8">
      <!-- 4.08 -->
      <g transform="translate(16.678365 292.679566) scale(0.1 -0.1)">
       <defs>
        <path id="DejaVuSans-38" d="M 2034 2216
Q 1584 2216 1326 1975
Q 1069 1734 1069 1313
Q 1069 891 1326 650
Q 1584 409 2034 409
Q 2484 409 2743 651
Q 3003 894 3003 1313
Q 3003 1734 2745 1975
Q 2488 2216 2034 2216
z
M 1403 2484
Q 997 2584 770 2862
Q 544 3141 544 3541
Q 544 4100 942 4425
Q 1341 4750 2034 4750
Q 2731 4750 3128 4425
Q 3525 4100 3525 3541
Q 3525 3141 3298 2862
Q 3072 2584 2669 2484
Q 3125 2378 3379 2068
Q 3634 1759 3634 1313
Q 3634 634 3220 271
Q 2806 -91 2034 -91
Q 1263 -91 848 271
Q 434 634 434 1313
Q 434 1759 690 2068
Q 947 2378 1403 2484
z
M 1172 3481
Q 1172 3119 1398 2916
Q 1625 2713 2034 2713
Q 2441 2713 2670 2916
Q 2900 3119 2900 3481
Q 2900 3844 2670 4047
Q 2441 4250 2034 4250
Q 1625 4250 1398 4047
Q 1172 3844 1172 3481
z
" transform="scale(0.015625)"/>
       </defs>
       <use xlink:href="#DejaVuSans-34"/>
       <use xlink:href="#DejaVuSans-2e" transform="translate(63.623047 0)"/>
       <use xlink:href="#DejaVuSans-30" transform="translate(95.410156 0)"/>
       <use xlink:href="#DejaVuSans-38" transform="translate(159.033203 0)"/>
      </g>
     </g>
    </g>
    <g id="ytick_2">
     <g id="line2d_9">
      <path d="M 45.94399 254.289523
L 419.687889 254.289523
" clip-path="url(#pd4410654b9)" style="fill: none; stroke: #b0b0b0; stroke-opacity: 0.2; stroke-width: 0.8; stroke-linecap: square"/>
     </g>
     <g id="line2d_10">
      <g>
       <use xlink:href="#mcf07788e78" x="45.94399" y="254.289523" style="stroke: #000000; stroke-width: 0.8"/>
      </g>
     </g>
     <g id="text_9">
      <!-- 4.09 -->
      <g transform="translate(16.678365 258.088741) scale(0.1 -0.1)">
       <defs>
        <path id="DejaVuSans-39" d="M 703 97
L 703 672
Q 941 559 1184 500
Q 1428 441 1663 441
Q 2288 441 2617 861
Q 2947 1281 2994 2138
Q 2813 1869 2534 1725
Q 2256 1581 1919 1581
Q 1219 1581 811 2004
Q 403 2428 403 3163
Q 403 3881 828 4315
Q 1253 4750 1959 4750
Q 2769 4750 3195 4129
Q 3622 3509 3622 2328
Q 3622 1225 3098 567
Q 2575 -91 1691 -91
Q 1453 -91 1209 -44
Q 966 3 703 97
z
M 1959 2075
Q 2384 2075 2632 2365
Q 2881 2656 2881 3163
Q 2881 3666 2632 3958
Q 2384 4250 1959 4250
Q 1534 4250 1286 3958
Q 1038 3666 1038 3163
Q 1038 2656 1286 2365
Q 1534 2075 1959 2075
z
" transform="scale(0.015625)"/>
       </defs>
       <use xlink:href="#DejaVuSans-34"/>
       <use xlink:href="#DejaVuSans-2e" transform="translate(63.623047 0)"/>
       <use xlink:href="#DejaVuSans-30" transform="translate(95.410156 0)"/>
       <use xlink:href="#DejaVuSans-39" transform="translate(159.033203 0)"/>
      </g>
     </g>
    </g>
    <g id="ytick_3">
     <g id="line2d_11">
      <path d="M 45.94399 219.698698
L 419.687889 219.698698
" clip-path="url(#pd4410654b9)" style="fill: none; stroke: #b0b0b0; stroke-opacity: 0.2; stroke-width: 0.8; stroke-linecap: square"/>
     </g>
     <g id="line2d_12">
      <g>
       <use xlink:href="#mcf07788e78" x="45.94399" y="219.698698" style="stroke: #000000; stroke-width: 0.8"/>
      </g>
     </g>
     <g id="text_10">
      <!-- 4.10 -->
      <g transform="translate(16.678365 223.497917) scale(0.1 -0.1)">
       <use xlink:href="#DejaVuSans-34"/>
       <use xlink:href="#DejaVuSans-2e" transform="translate(63.623047 0)"/>
       <use xlink:href="#DejaVuSans-31" transform="translate(95.410156 0)"/>
       <use xlink:href="#DejaVuSans-30" transform="translate(159.033203 0)"/>
      </g>
     </g>
    </g>
    <g id="ytick_4">
     <g id="line2d_13">
      <path d="M 45.94399 185.107874
L 419.687889 185.107874
" clip-path="url(#pd4410654b9)" style="fill: none; stroke: #b0b0b0; stroke-opacity: 0.2; stroke-width: 0.8; stroke-linecap: square"/>
     </g>
     <g id="line2d_14">
      <g>
       <use xlink:href="#mcf07788e78" x="45.94399" y="185.107874" style="stroke: #000000; stroke-width: 0.8"/>
      </g>
     </g>
     <g id="text_11">
      <!-- 4.11 -->
      <g transform="translate(16.678365 188.907093) scale(0.1 -0.1)">
       <use xlink:href="#DejaVuSans-34"/>
       <use xlink:href="#DejaVuSans-2e" transform="translate(63.623047 0)"/>
       <use xlink:href="#DejaVuSans-31" transform="translate(95.410156 0)"/>
       <use xlink:href="#DejaVuSans-31" transform="translate(159.033203 0)"/>
      </g>
     </g>
    </g>
    <g id="ytick_5">
     <g id="line2d_15">
      <path d="M 45.94399 150.51705
L 419.687889 150.51705
" clip-path="url(#pd4410654b9)" style="fill: none; stroke: #b0b0b0; stroke-opacity: 0.2; stroke-width: 0.8; stroke-linecap: square"/>
     </g>
     <g id="line2d_16">
      <g>
       <use xlink:href="#mcf07788e78" x="45.94399" y="150.51705" style="stroke: #000000; stroke-width: 0.8"/>
      </g>
     </g>
     <g id="text_12">
      <!-- 4.12 -->
      <g transform="translate(16.678365 154.316268) scale(0.1 -0.1)">
       <use xlink:href="#DejaVuSans-34"/>
       <use xlink:href="#DejaVuSans-2e" transform="translate(63.623047 0)"/>
       <use xlink:href="#DejaVuSans-31" transform="translate(95.410156 0)"/>
       <use xlink:href="#DejaVuSans-32" transform="translate(159.033203 0)"/>
      </g>
     </g>
    </g>
    <g id="ytick_6">
     <g id="line2d_17">
      <path d="M 45.94399 115.926225
L 419.687889 115.926225
" clip-path="url(#pd4410654b9)" style="fill: none; stroke: #b0b0b0; stroke-opacity: 0.2; stroke-width: 0.8; stroke-linecap: square"/>
     </g>
     <g id="line2d_18">
      <g>
       <use xlink:href="#mcf07788e78" x="45.94399" y="115.926225" style="stroke: #000000; stroke-width: 0.8"/>
      </g>
     </g>
     <g id="text_13">
      <!-- 4.13 -->
      <g transform="translate(16.678365 119.725444) scale(0.1 -0.1)">
       <use xlink:href="#DejaVuSans-34"/>
       <use xlink:href="#DejaVuSans-2e" transform="translate(63.623047 0)"/>
       <use xlink:href="#DejaVuSans-31" transform="translate(95.410156 0)"/>
       <use xlink:href="#DejaVuSans-33" transform="translate(159.033203 0)"/>
      </g>
     </g>
    </g>
    <g id="ytick_7">
     <g id="line2d_19">
      <path d="M 45.94399 81.335401
L 419.687889 81.335401
" clip-path="url(#pd4410654b9)" style="fill: none; stroke: #b0b0b0; stroke-opacity: 0.2; stroke-width: 0.8; stroke-linecap: square"/>
     </g>
     <g id="line2d_20">
      <g>
       <use xlink:href="#mcf07788e78" x="45.94399" y="81.335401" style="stroke: #000000; stroke-width: 0.8"/>
      </g>
     </g>
     <g id="text_14">
      <!-- 4.14 -->
      <g transform="translate(16.678365 85.13462) scale(0.1 -0.1)">
       <use xlink:href="#DejaVuSans-34"/>
       <use xlink:href="#DejaVuSans-2e" transform="translate(63.623047 0)"/>
       <use xlink:href="#DejaVuSans-31" transform="translate(95.410156 0)"/>
       <use xlink:href="#DejaVuSans-34" transform="translate(159.033203 0)"/>
      </g>
     </g>
    </g>
    <g id="ytick_8">
     <g id="line2d_21">
      <path d="M 45.94399 46.744576
L 419.687889 46.744576
" clip-path="url(#pd4410654b9)" style="fill: none; stroke: #b0b0b0; stroke-opacity: 0.2; stroke-width: 0.8; stroke-linecap: square"/>
     </g>
     <g id="line2d_22">
      <g>
       <use xlink:href="#mcf07788e78" x="45.94399" y="46.744576" style="stroke: #000000; stroke-width: 0.8"/>
      </g>
     </g>
     <g id="text_15">
      <!-- 4.15 -->
      <g transform="translate(16.678365 50.543795) scale(0.1 -0.1)">
       <use xlink:href="#DejaVuSans-34"/>
       <use xlink:href="#DejaVuSans-2e" transform="translate(63.623047 0)"/>
       <use xlink:href="#DejaVuSans-31" transform="translate(95.410156 0)"/>
       <use xlink:href="#DejaVuSans-35" transform="translate(159.033203 0)"/>
      </g>
     </g>
    </g>
    <g id="text_16">
     <!-- Process RSS (GiB) -->
     <g transform="translate(10.598678 209.200709) rotate(-90) scale(0.1 -0.1)">
      <defs>
       <path id="DejaVuSans-50" d="M 1259 4147
L 1259 2394
L 2053 2394
Q 2494 2394 2734 2622
Q 2975 2850 2975 3272
Q 2975 3691 2734 3919
Q 2494 4147 2053 4147
L 1259 4147
z
M 628 4666
L 2053 4666
Q 2838 4666 3239 4311
Q 3641 3956 3641 3272
Q 3641 2581 3239 2228
Q 2838 1875 2053 1875
L 1259 1875
L 1259 0
L 628 0
L 628 4666
z
" transform="scale(0.015625)"/>
       <path id="DejaVuSans-72" d="M 2631 2963
Q 2534 3019 2420 3045
Q 2306 3072 2169 3072
Q 1681 3072 1420 2755
Q 1159 2438 1159 1844
L 1159 0
L 581 0
L 581 3500
L 1159 3500
L 1159 2956
Q 1341 3275 1631 3429
Q 1922 3584 2338 3584
Q 2397 3584 2469 3576
Q 2541 3569 2628 3553
L 2631 2963
z
" transform="scale(0.015625)"/>
       <path id="DejaVuSans-6f" d="M 1959 3097
Q 1497 3097 1228 2736
Q 959 2375 959 1747
Q 959 1119 1226 758
Q 1494 397 1959 397
Q 2419 397 2687 759
Q 2956 1122 2956 1747
Q 2956 2369 2687 2733
Q 2419 3097 1959 3097
z
M 1959 3584
Q 2709 3584 3137 3096
Q 3566 2609 3566 1747
Q 3566 888 3137 398
Q 2709 -91 1959 -91
Q 1206 -91 779 398
Q 353 888 353 1747
Q 353 2609 779 3096
Q 1206 3584 1959 3584
z
" transform="scale(0.015625)"/>
       <path id="DejaVuSans-63" d="M 3122 3366
L 3122 2828
Q 2878 2963 2633 3030
Q 2388 3097 2138 3097
Q 1578 3097 1268 2742
Q 959 2388 959 1747
Q 959 1106 1268 751
Q 1578 397 2138 397
Q 2388 397 2633 464
Q 2878 531 3122 666
L 3122 134
Q 2881 22 2623 -34
Q 2366 -91 2075 -91
Q 1284 -91 818 406
Q 353 903 353 1747
Q 353 2603 823 3093
Q 1294 3584 2113 3584
Q 2378 3584 2631 3529
Q 2884 3475 3122 3366
z
" transform="scale(0.015625)"/>
       <path id="DejaVuSans-52" d="M 2841 2188
Q 3044 2119 3236 1894
Q 3428 1669 3622 1275
L 4263 0
L 3584 0
L 2988 1197
Q 2756 1666 2539 1819
Q 2322 1972 1947 1972
L 1259 1972
L 1259 0
L 628 0
L 628 4666
L 2053 4666
Q 2853 4666 3247 4331
Q 3641 3997 3641 3322
Q 3641 2881 3436 2590
Q 3231 2300 2841 2188
z
M 1259 4147
L 1259 2491
L 2053 2491
Q 2509 2491 2742 2702
Q 2975 2913 2975 3322
Q 2975 3731 2742 3939
Q 2509 4147 2053 4147
L 1259 4147
z
" transform="scale(0.015625)"/>
       <path id="DejaVuSans-53" d="M 3425 4513
L 3425 3897
Q 3066 4069 2747 4153
Q 2428 4238 2131 4238
Q 1616 4238 1336 4038
Q 1056 3838 1056 3469
Q 1056 3159 1242 3001
Q 1428 2844 1947 2747
L 2328 2669
Q 3034 2534 3370 2195
Q 3706 1856 3706 1288
Q 3706 609 3251 259
Q 2797 -91 1919 -91
Q 1588 -91 1214 -16
Q 841 59 441 206
L 441 856
Q 825 641 1194 531
Q 1563 422 1919 422
Q 2459 422 2753 634
Q 3047 847 3047 1241
Q 3047 1584 2836 1778
Q 2625 1972 2144 2069
L 1759 2144
Q 1053 2284 737 2584
Q 422 2884 422 3419
Q 422 4038 858 4394
Q 1294 4750 2059 4750
Q 2388 4750 2728 4690
Q 3069 4631 3425 4513
z
" transform="scale(0.015625)"/>
       <path id="DejaVuSans-47" d="M 3809 666
L 3809 1919
L 2778 1919
L 2778 2438
L 4434 2438
L 4434 434
Q 4069 175 3628 42
Q 3188 -91 2688 -91
Q 1594 -91 976 548
Q 359 1188 359 2328
Q 359 3472 976 4111
Q 1594 4750 2688 4750
Q 3144 4750 3555 4637
Q 3966 4525 4313 4306
L 4313 3634
Q 3963 3931 3569 4081
Q 3175 4231 2741 4231
Q 1884 4231 1454 3753
Q 1025 3275 1025 2328
Q 1025 1384 1454 906
Q 1884 428 2741 428
Q 3075 428 3337 486
Q 3600 544 3809 666
z
" transform="scale(0.015625)"/>
       <path id="DejaVuSans-42" d="M 1259 2228
L 1259 519
L 2272 519
Q 2781 519 3026 730
Q 3272 941 3272 1375
Q 3272 1813 3026 2020
Q 2781 2228 2272 2228
L 1259 2228
z
M 1259 4147
L 1259 2741
L 2194 2741
Q 2656 2741 2882 2914
Q 3109 3088 3109 3444
Q 3109 3797 2882 3972
Q 2656 4147 2194 4147
L 1259 4147
z
M 628 4666
L 2241 4666
Q 2963 4666 3353 4366
Q 3744 4066 3744 3513
Q 3744 3084 3544 2831
Q 3344 2578 2956 2516
Q 3422 2416 3680 2098
Q 3938 1781 3938 1306
Q 3938 681 3513 340
Q 3088 0 2303 0
L 628 0
L 628 4666
z
" transform="scale(0.015625)"/>
      </defs>
      <use xlink:href="#DejaVuSans-50"/>
      <use xlink:href="#DejaVuSans-72" transform="translate(58.552734 0)"/>
      <use xlink:href="#DejaVuSans-6f" transform="translate(97.416016 0)"/>
      <use xlink:href="#DejaVuSans-63" transform="translate(158.597656 0)"/>
      <use xlink:href="#DejaVuSans-65" transform="translate(213.578125 0)"/>
      <use xlink:href="#DejaVuSans-73" transform="translate(275.101562 0)"/>
      <use xlink:href="#DejaVuSans-73" transform="translate(327.201172 0)"/>
      <use xlink:href="#DejaVuSans-20" transform="translate(379.300781 0)"/>
      <use xlink:href="#DejaVuSans-52" transform="translate(411.087891 0)"/>
      <use xlink:href="#DejaVuSans-53" transform="translate(480.570312 0)"/>
      <use xlink:href="#DejaVuSans-53" transform="translate(544.046875 0)"/>
      <use xlink:href="#DejaVuSans-20" transform="translate(607.523438 0)"/>
      <use xlink:href="#DejaVuSans-28" transform="translate(639.310547 0)"/>
      <use xlink:href="#DejaVuSans-47" transform="translate(678.324219 0)"/>
      <use xlink:href="#DejaVuSans-69" transform="translate(755.814453 0)"/>
      <use xlink:href="#DejaVuSans-42" transform="translate(783.597656 0)"/>
      <use xlink:href="#DejaVuSans-29" transform="translate(852.201172 0)"/>
     </g>
    </g>
   </g>
   <g id="line2d_23">
    <path d="M 62.932349 279.188625
L 63.380582 279.188625
L 63.487095 279.188625
L 72.831755 210.572793
L 79.672762 155.178704
L 86.506675 92.87025
L 93.360873 72.62858
L 100.234011 87.407374
L 107.104212 95.443344
L 113.974743 81.0868
L 120.839652 98.187977
L 127.816973 97.5546
L 134.665083 88.476198
L 141.507468 97.5546
L 148.346769 72.62858
L 155.228226 89.531826
L 162.098936 97.5546
L 168.968596 80.598572
L 175.85667 91.841013
L 182.754406 83.052908
L 189.61413 87.539328
L 196.5071 99.79781
L 203.4444 99.045675
L 210.293149 107.715021
L 217.308312 109.219292
L 224.160875 83.395987
L 231.037675 109.206096
L 237.921911 98.913721
L 244.779361 108.96858
L 251.678781 107.649045
L 258.547792 78.104651
L 265.477673 108.044905
L 272.326885 98.6894
L 279.176921 110.142966
L 286.070415 97.765726
L 292.931194 86.351746
L 299.836831 101.882676
L 306.713315 101.988238
L 313.575189 109.034557
L 320.436438 87.908798
L 327.31572 85.058601
L 334.216371 111.963925
L 341.110165 99.441535
L 347.968411 111.106227
L 354.828897 89.518631
L 361.712592 76.785116
L 368.640763 111.528478
L 375.512094 95.50932
L 382.358442 109.417222
L 389.408742 107.965733
L 396.283525 85.058601
L 402.269109 50.592341
L 402.47497 50.592341
L 402.69953 50.090918
" clip-path="url(#pd4410654b9)" style="fill: none; stroke: #0f766e; stroke-width: 1.6; stroke-linecap: square"/>
   </g>
   <g id="patch_6">
    <path d="M 45.94399 290.64351
L 45.94399 38.636032
" style="fill: none; stroke: #000000; stroke-width: 0.8; stroke-linejoin: miter; stroke-linecap: square"/>
   </g>
   <g id="patch_7">
    <path d="M 419.687889 290.64351
L 419.687889 38.636032
" style="fill: none; stroke: #000000; stroke-width: 0.8; stroke-linejoin: miter; stroke-linecap: square"/>
   </g>
   <g id="patch_8">
    <path d="M 45.94399 290.64351
L 419.687889 290.64351
" style="fill: none; stroke: #000000; stroke-width: 0.8; stroke-linejoin: miter; stroke-linecap: square"/>
   </g>
   <g id="patch_9">
    <path d="M 45.94399 38.636032
L 419.687889 38.636032
" style="fill: none; stroke: #000000; stroke-width: 0.8; stroke-linejoin: miter; stroke-linecap: square"/>
   </g>
   <g id="text_17">
    <!-- forward -->
    <g style="fill: #475569" transform="translate(217.541852 49.754932) scale(0.08 -0.08)">
     <defs>
      <path id="DejaVuSans-66" d="M 2375 4863
L 2375 4384
L 1825 4384
Q 1516 4384 1395 4259
Q 1275 4134 1275 3809
L 1275 3500
L 2222 3500
L 2222 3053
L 1275 3053
L 1275 0
L 697 0
L 697 3053
L 147 3053
L 147 3500
L 697 3500
L 697 3744
Q 697 4328 969 4595
Q 1241 4863 1831 4863
L 2375 4863
z
" transform="scale(0.015625)"/>
      <path id="DejaVuSans-77" d="M 269 3500
L 844 3500
L 1563 769
L 2278 3500
L 2956 3500
L 3675 769
L 4391 3500
L 4966 3500
L 4050 0
L 3372 0
L 2619 2869
L 1863 0
L 1184 0
L 269 3500
z
" transform="scale(0.015625)"/>
     </defs>
     <use xlink:href="#DejaVuSans-66"/>
     <use xlink:href="#DejaVuSans-6f" transform="translate(35.205078 0)"/>
     <use xlink:href="#DejaVuSans-72" transform="translate(96.386719 0)"/>
     <use xlink:href="#DejaVuSans-77" transform="translate(137.5 0)"/>
     <use xlink:href="#DejaVuSans-61" transform="translate(219.287109 0)"/>
     <use xlink:href="#DejaVuSans-72" transform="translate(280.566406 0)"/>
     <use xlink:href="#DejaVuSans-64" transform="translate(319.929688 0)"/>
    </g>
   </g>
   <g id="PathCollection_1">
    <defs>
     <path id="m7879c2252d" d="M 0 2.44949
C 0.649612 2.44949 1.272706 2.191396 1.732051 1.732051
C 2.191396 1.272706 2.44949 0.649612 2.44949 0
C 2.44949 -0.649612 2.191396 -1.272706 1.732051 -1.732051
C 1.272706 -2.191396 0.649612 -2.44949 0 -2.44949
C -0.649612 -2.44949 -1.272706 -2.191396 -1.732051 -1.732051
C -2.191396 -1.272706 -2.44949 -0.649612 -2.44949 0
C -2.44949 0.649612 -2.191396 1.272706 -1.732051 1.732051
C -1.272706 2.191396 -0.649612 2.44949 0 2.44949
z
" style="stroke: #0f766e"/>
    </defs>
    <g clip-path="url(#pd4410654b9)">
     <use xlink:href="#m7879c2252d" x="402.69953" y="50.090918" style="fill: #0f766e; stroke: #0f766e"/>
    </g>
   </g>
   <g id="text_18">
    <!-- 4.15 GiB -->
    <g style="fill: #0f766e" transform="translate(407.69953 43.090918) scale(0.08 -0.08)">
     <use xlink:href="#DejaVuSans-34"/>
     <use xlink:href="#DejaVuSans-2e" transform="translate(63.623047 0)"/>
     <use xlink:href="#DejaVuSans-31" transform="translate(95.410156 0)"/>
     <use xlink:href="#DejaVuSans-35" transform="translate(159.033203 0)"/>
     <use xlink:href="#DejaVuSans-20" transform="translate(222.65625 0)"/>
     <use xlink:href="#DejaVuSans-47" transform="translate(254.443359 0)"/>
     <use xlink:href="#DejaVuSans-69" transform="translate(331.933594 0)"/>
     <use xlink:href="#DejaVuSans-42" transform="translate(359.716797 0)"/>
    </g>
   </g>
   <g id="text_19">
    <!-- large, B=1, FP32, steps=1 -->
    <g style="fill: #334155" transform="translate(49.681429 285.60336) scale(0.08 -0.08)">
     <defs>
      <path id="DejaVuSans-67" d="M 2906 1791
Q 2906 2416 2648 2759
Q 2391 3103 1925 3103
Q 1463 3103 1205 2759
Q 947 2416 947 1791
Q 947 1169 1205 825
Q 1463 481 1925 481
Q 2391 481 2648 825
Q 2906 1169 2906 1791
z
M 3481 434
Q 3481 -459 3084 -895
Q 2688 -1331 1869 -1331
Q 1566 -1331 1297 -1286
Q 1028 -1241 775 -1147
L 775 -588
Q 1028 -725 1275 -790
Q 1522 -856 1778 -856
Q 2344 -856 2625 -561
Q 2906 -266 2906 331
L 2906 616
Q 2728 306 2450 153
Q 2172 0 1784 0
Q 1141 0 747 490
Q 353 981 353 1791
Q 353 2603 747 3093
Q 1141 3584 1784 3584
Q 2172 3584 2450 3431
Q 2728 3278 2906 2969
L 2906 3500
L 3481 3500
L 3481 434
z
" transform="scale(0.015625)"/>
      <path id="DejaVuSans-2c" d="M 750 794
L 1409 794
L 1409 256
L 897 -744
L 494 -744
L 750 256
L 750 794
z
" transform="scale(0.015625)"/>
      <path id="DejaVuSans-3d" d="M 678 2906
L 4684 2906
L 4684 2381
L 678 2381
L 678 2906
z
M 678 1631
L 4684 1631
L 4684 1100
L 678 1100
L 678 1631
z
" transform="scale(0.015625)"/>
      <path id="DejaVuSans-46" d="M 628 4666
L 3309 4666
L 3309 4134
L 1259 4134
L 1259 2759
L 3109 2759
L 3109 2228
L 1259 2228
L 1259 0
L 628 0
L 628 4666
z
" transform="scale(0.015625)"/>
     </defs>
     <use xlink:href="#DejaVuSans-6c"/>
     <use xlink:href="#DejaVuSans-61" transform="translate(27.783203 0)"/>
     <use xlink:href="#DejaVuSans-72" transform="translate(89.0625 0)"/>
     <use xlink:href="#DejaVuSans-67" transform="translate(128.425781 0)"/>
     <use xlink:href="#DejaVuSans-65" transform="translate(191.902344 0)"/>
     <use xlink:href="#DejaVuSans-2c" transform="translate(253.425781 0)"/>
     <use xlink:href="#DejaVuSans-20" transform="translate(285.212891 0)"/>
     <use xlink:href="#DejaVuSans-42" transform="translate(317 0)"/>
     <use xlink:href="#DejaVuSans-3d" transform="translate(385.603516 0)"/>
     <use xlink:href="#DejaVuSans-31" transform="translate(469.392578 0)"/>
     <use xlink:href="#DejaVuSans-2c" transform="translate(533.015625 0)"/>
     <use xlink:href="#DejaVuSans-20" transform="translate(564.802734 0)"/>
     <use xlink:href="#DejaVuSans-46" transform="translate(596.589844 0)"/>
     <use xlink:href="#DejaVuSans-50" transform="translate(654.109375 0)"/>
     <use xlink:href="#DejaVuSans-33" transform="translate(714.412109 0)"/>
     <use xlink:href="#DejaVuSans-32" transform="translate(778.035156 0)"/>
     <use xlink:href="#DejaVuSans-2c" transform="translate(841.658203 0)"/>
     <use xlink:href="#DejaVuSans-20" transform="translate(873.445312 0)"/>
     <use xlink:href="#DejaVuSans-73" transform="translate(905.232422 0)"/>
     <use xlink:href="#DejaVuSans-74" transform="translate(957.332031 0)"/>
     <use xlink:href="#DejaVuSans-65" transform="translate(996.541016 0)"/>
     <use xlink:href="#DejaVuSans-70" transform="translate(1058.064453 0)"/>
     <use xlink:href="#DejaVuSans-73" transform="translate(1121.541016 0)"/>
     <use xlink:href="#DejaVuSans-3d" transform="translate(1173.640625 0)"/>
     <use xlink:href="#DejaVuSans-31" transform="translate(1257.429688 0)"/>
    </g>
   </g>
   <g id="text_20">
    <!-- S=128 -->
    <g transform="translate(212.526564 32.636032) scale(0.12 -0.12)">
     <use xlink:href="#DejaVuSans-53"/>
     <use xlink:href="#DejaVuSans-3d" transform="translate(63.476562 0)"/>
     <use xlink:href="#DejaVuSans-31" transform="translate(147.265625 0)"/>
     <use xlink:href="#DejaVuSans-32" transform="translate(210.888672 0)"/>
     <use xlink:href="#DejaVuSans-38" transform="translate(274.511719 0)"/>
    </g>
   </g>
  </g>
  <g id="axes_2">
   <g id="patch_10">
    <path d="M 487.255861 290.64351
L 860.99976 290.64351
L 860.99976 38.636032
L 487.255861 38.636032
z
" style="fill: #ffffff"/>
   </g>
   <g id="patch_11">
    <path d="M 504.24422 290.64351
L 504.262712 290.64351
L 504.262712 38.636032
L 504.24422 38.636032
z
" clip-path="url(#p0a36e65a47)" style="fill: #f1f5f9; opacity: 0.45"/>
   </g>
   <g id="patch_12">
    <path d="M 504.266478 290.64351
L 843.99353 290.64351
L 843.99353 38.636032
L 504.266478 38.636032
z
" clip-path="url(#p0a36e65a47)" style="fill: #ccfbf1; opacity: 0.45"/>
   </g>
   <g id="patch_13">
    <path d="M 844.000555 290.64351
L 844.011401 290.64351
L 844.011401 38.636032
L 844.000555 38.636032
z
" clip-path="url(#p0a36e65a47)" style="fill: #f1f5f9; opacity: 0.45"/>
   </g>
   <g id="matplotlib.axis_3">
    <g id="xtick_7">
     <g id="line2d_24">
      <g>
       <use xlink:href="#mf74ef1a993" x="504.244054" y="290.64351" style="stroke: #000000; stroke-width: 0.8"/>
      </g>
     </g>
     <g id="text_21">
      <!-- 0 -->
      <g transform="translate(501.062804 305.241947) scale(0.1 -0.1)">
       <use xlink:href="#DejaVuSans-30"/>
      </g>
     </g>
    </g>
    <g id="xtick_8">
     <g id="line2d_25">
      <g>
       <use xlink:href="#mf74ef1a993" x="552.398647" y="290.64351" style="stroke: #000000; stroke-width: 0.8"/>
      </g>
     </g>
     <g id="text_22">
      <!-- 2 -->
      <g transform="translate(549.217397 305.241947) scale(0.1 -0.1)">
       <use xlink:href="#DejaVuSans-32"/>
      </g>
     </g>
    </g>
    <g id="xtick_9">
     <g id="line2d_26">
      <g>
       <use xlink:href="#mf74ef1a993" x="600.55324" y="290.64351" style="stroke: #000000; stroke-width: 0.8"/>
      </g>
     </g>
     <g id="text_23">
      <!-- 4 -->
      <g transform="translate(597.37199 305.241947) scale(0.1 -0.1)">
       <use xlink:href="#DejaVuSans-34"/>
      </g>
     </g>
    </g>
    <g id="xtick_10">
     <g id="line2d_27">
      <g>
       <use xlink:href="#mf74ef1a993" x="648.707833" y="290.64351" style="stroke: #000000; stroke-width: 0.8"/>
      </g>
     </g>
     <g id="text_24">
      <!-- 6 -->
      <g transform="translate(645.526583 305.241947) scale(0.1 -0.1)">
       <defs>
        <path id="DejaVuSans-36" d="M 2113 2584
Q 1688 2584 1439 2293
Q 1191 2003 1191 1497
Q 1191 994 1439 701
Q 1688 409 2113 409
Q 2538 409 2786 701
Q 3034 994 3034 1497
Q 3034 2003 2786 2293
Q 2538 2584 2113 2584
z
M 3366 4563
L 3366 3988
Q 3128 4100 2886 4159
Q 2644 4219 2406 4219
Q 1781 4219 1451 3797
Q 1122 3375 1075 2522
Q 1259 2794 1537 2939
Q 1816 3084 2150 3084
Q 2853 3084 3261 2657
Q 3669 2231 3669 1497
Q 3669 778 3244 343
Q 2819 -91 2113 -91
Q 1303 -91 875 529
Q 447 1150 447 2328
Q 447 3434 972 4092
Q 1497 4750 2381 4750
Q 2619 4750 2861 4703
Q 3103 4656 3366 4563
z
" transform="scale(0.015625)"/>
       </defs>
       <use xlink:href="#DejaVuSans-36"/>
      </g>
     </g>
    </g>
    <g id="xtick_11">
     <g id="line2d_28">
      <g>
       <use xlink:href="#mf74ef1a993" x="696.862426" y="290.64351" style="stroke: #000000; stroke-width: 0.8"/>
      </g>
     </g>
     <g id="text_25">
      <!-- 8 -->
      <g transform="translate(693.681176 305.241947) scale(0.1 -0.1)">
       <use xlink:href="#DejaVuSans-38"/>
      </g>
     </g>
    </g>
    <g id="xtick_12">
     <g id="line2d_29">
      <g>
       <use xlink:href="#mf74ef1a993" x="745.01702" y="290.64351" style="stroke: #000000; stroke-width: 0.8"/>
      </g>
     </g>
     <g id="text_26">
      <!-- 10 -->
      <g transform="translate(738.65452 305.241947) scale(0.1 -0.1)">
       <use xlink:href="#DejaVuSans-31"/>
       <use xlink:href="#DejaVuSans-30" transform="translate(63.623047 0)"/>
      </g>
     </g>
    </g>
    <g id="xtick_13">
     <g id="line2d_30">
      <g>
       <use xlink:href="#mf74ef1a993" x="793.171613" y="290.64351" style="stroke: #000000; stroke-width: 0.8"/>
      </g>
     </g>
     <g id="text_27">
      <!-- 12 -->
      <g transform="translate(786.809113 305.241947) scale(0.1 -0.1)">
       <use xlink:href="#DejaVuSans-31"/>
       <use xlink:href="#DejaVuSans-32" transform="translate(63.623047 0)"/>
      </g>
     </g>
    </g>
    <g id="xtick_14">
     <g id="line2d_31">
      <g>
       <use xlink:href="#mf74ef1a993" x="841.326206" y="290.64351" style="stroke: #000000; stroke-width: 0.8"/>
      </g>
     </g>
     <g id="text_28">
      <!-- 14 -->
      <g transform="translate(834.963706 305.241947) scale(0.1 -0.1)">
       <use xlink:href="#DejaVuSans-31"/>
       <use xlink:href="#DejaVuSans-34" transform="translate(63.623047 0)"/>
      </g>
     </g>
    </g>
    <g id="text_29">
     <!-- Elapsed time (s) -->
     <g transform="translate(633.505154 318.920073) scale(0.1 -0.1)">
      <use xlink:href="#DejaVuSans-45"/>
      <use xlink:href="#DejaVuSans-6c" transform="translate(63.183594 0)"/>
      <use xlink:href="#DejaVuSans-61" transform="translate(90.966797 0)"/>
      <use xlink:href="#DejaVuSans-70" transform="translate(152.246094 0)"/>
      <use xlink:href="#DejaVuSans-73" transform="translate(215.722656 0)"/>
      <use xlink:href="#DejaVuSans-65" transform="translate(267.822266 0)"/>
      <use xlink:href="#DejaVuSans-64" transform="translate(329.345703 0)"/>
      <use xlink:href="#DejaVuSans-20" transform="translate(392.822266 0)"/>
      <use xlink:href="#DejaVuSans-74" transform="translate(424.609375 0)"/>
      <use xlink:href="#DejaVuSans-69" transform="translate(463.818359 0)"/>
      <use xlink:href="#DejaVuSans-6d" transform="translate(491.601562 0)"/>
      <use xlink:href="#DejaVuSans-65" transform="translate(589.013672 0)"/>
      <use xlink:href="#DejaVuSans-20" transform="translate(650.537109 0)"/>
      <use xlink:href="#DejaVuSans-28" transform="translate(682.324219 0)"/>
      <use xlink:href="#DejaVuSans-73" transform="translate(721.337891 0)"/>
      <use xlink:href="#DejaVuSans-29" transform="translate(773.4375 0)"/>
     </g>
    </g>
   </g>
   <g id="matplotlib.axis_4">
    <g id="ytick_9">
     <g id="line2d_32">
      <path d="M 487.255861 257.974101
L 860.99976 257.974101
" clip-path="url(#p0a36e65a47)" style="fill: none; stroke: #b0b0b0; stroke-opacity: 0.2; stroke-width: 0.8; stroke-linecap: square"/>
     </g>
     <g id="line2d_33">
      <g>
       <use xlink:href="#mcf07788e78" x="487.255861" y="257.974101" style="stroke: #000000; stroke-width: 0.8"/>
      </g>
     </g>
     <g id="text_30">
      <!-- 4.2 -->
      <g transform="translate(464.352736 261.773319) scale(0.1 -0.1)">
       <use xlink:href="#DejaVuSans-34"/>
       <use xlink:href="#DejaVuSans-2e" transform="translate(63.623047 0)"/>
       <use xlink:href="#DejaVuSans-32" transform="translate(95.410156 0)"/>
      </g>
     </g>
    </g>
    <g id="ytick_10">
     <g id="line2d_34">
      <path d="M 487.255861 215.498712
L 860.99976 215.498712
" clip-path="url(#p0a36e65a47)" style="fill: none; stroke: #b0b0b0; stroke-opacity: 0.2; stroke-width: 0.8; stroke-linecap: square"/>
     </g>
     <g id="line2d_35">
      <g>
       <use xlink:href="#mcf07788e78" x="487.255861" y="215.498712" style="stroke: #000000; stroke-width: 0.8"/>
      </g>
     </g>
     <g id="text_31">
      <!-- 4.4 -->
      <g transform="translate(464.352736 219.297931) scale(0.1 -0.1)">
       <use xlink:href="#DejaVuSans-34"/>
       <use xlink:href="#DejaVuSans-2e" transform="translate(63.623047 0)"/>
       <use xlink:href="#DejaVuSans-34" transform="translate(95.410156 0)"/>
      </g>
     </g>
    </g>
    <g id="ytick_11">
     <g id="line2d_36">
      <path d="M 487.255861 173.023323
L 860.99976 173.023323
" clip-path="url(#p0a36e65a47)" style="fill: none; stroke: #b0b0b0; stroke-opacity: 0.2; stroke-width: 0.8; stroke-linecap: square"/>
     </g>
     <g id="line2d_37">
      <g>
       <use xlink:href="#mcf07788e78" x="487.255861" y="173.023323" style="stroke: #000000; stroke-width: 0.8"/>
      </g>
     </g>
     <g id="text_32">
      <!-- 4.6 -->
      <g transform="translate(464.352736 176.822542) scale(0.1 -0.1)">
       <use xlink:href="#DejaVuSans-34"/>
       <use xlink:href="#DejaVuSans-2e" transform="translate(63.623047 0)"/>
       <use xlink:href="#DejaVuSans-36" transform="translate(95.410156 0)"/>
      </g>
     </g>
    </g>
    <g id="ytick_12">
     <g id="line2d_38">
      <path d="M 487.255861 130.547935
L 860.99976 130.547935
" clip-path="url(#p0a36e65a47)" style="fill: none; stroke: #b0b0b0; stroke-opacity: 0.2; stroke-width: 0.8; stroke-linecap: square"/>
     </g>
     <g id="line2d_39">
      <g>
       <use xlink:href="#mcf07788e78" x="487.255861" y="130.547935" style="stroke: #000000; stroke-width: 0.8"/>
      </g>
     </g>
     <g id="text_33">
      <!-- 4.8 -->
      <g transform="translate(464.352736 134.347153) scale(0.1 -0.1)">
       <use xlink:href="#DejaVuSans-34"/>
       <use xlink:href="#DejaVuSans-2e" transform="translate(63.623047 0)"/>
       <use xlink:href="#DejaVuSans-38" transform="translate(95.410156 0)"/>
      </g>
     </g>
    </g>
    <g id="ytick_13">
     <g id="line2d_40">
      <path d="M 487.255861 88.072546
L 860.99976 88.072546
" clip-path="url(#p0a36e65a47)" style="fill: none; stroke: #b0b0b0; stroke-opacity: 0.2; stroke-width: 0.8; stroke-linecap: square"/>
     </g>
     <g id="line2d_41">
      <g>
       <use xlink:href="#mcf07788e78" x="487.255861" y="88.072546" style="stroke: #000000; stroke-width: 0.8"/>
      </g>
     </g>
     <g id="text_34">
      <!-- 5.0 -->
      <g transform="translate(464.352736 91.871765) scale(0.1 -0.1)">
       <use xlink:href="#DejaVuSans-35"/>
       <use xlink:href="#DejaVuSans-2e" transform="translate(63.623047 0)"/>
       <use xlink:href="#DejaVuSans-30" transform="translate(95.410156 0)"/>
      </g>
     </g>
    </g>
    <g id="ytick_14">
     <g id="line2d_42">
      <path d="M 487.255861 45.597157
L 860.99976 45.597157
" clip-path="url(#p0a36e65a47)" style="fill: none; stroke: #b0b0b0; stroke-opacity: 0.2; stroke-width: 0.8; stroke-linecap: square"/>
     </g>
     <g id="line2d_43">
      <g>
       <use xlink:href="#mcf07788e78" x="487.255861" y="45.597157" style="stroke: #000000; stroke-width: 0.8"/>
      </g>
     </g>
     <g id="text_35">
      <!-- 5.2 -->
      <g transform="translate(464.352736 49.396376) scale(0.1 -0.1)">
       <use xlink:href="#DejaVuSans-35"/>
       <use xlink:href="#DejaVuSans-2e" transform="translate(63.623047 0)"/>
       <use xlink:href="#DejaVuSans-32" transform="translate(95.410156 0)"/>
      </g>
     </g>
    </g>
    <g id="text_36">
     <!-- Process RSS (GiB) -->
     <g transform="translate(458.273049 209.200709) rotate(-90) scale(0.1 -0.1)">
      <use xlink:href="#DejaVuSans-50"/>
      <use xlink:href="#DejaVuSans-72" transform="translate(58.552734 0)"/>
      <use xlink:href="#DejaVuSans-6f" transform="translate(97.416016 0)"/>
      <use xlink:href="#DejaVuSans-63" transform="translate(158.597656 0)"/>
      <use xlink:href="#DejaVuSans-65" transform="translate(213.578125 0)"/>
      <use xlink:href="#DejaVuSans-73" transform="translate(275.101562 0)"/>
      <use xlink:href="#DejaVuSans-73" transform="translate(327.201172 0)"/>
      <use xlink:href="#DejaVuSans-20" transform="translate(379.300781 0)"/>
      <use xlink:href="#DejaVuSans-52" transform="translate(411.087891 0)"/>
      <use xlink:href="#DejaVuSans-53" transform="translate(480.570312 0)"/>
      <use xlink:href="#DejaVuSans-53" transform="translate(544.046875 0)"/>
      <use xlink:href="#DejaVuSans-20" transform="translate(607.523438 0)"/>
      <use xlink:href="#DejaVuSans-28" transform="translate(639.310547 0)"/>
      <use xlink:href="#DejaVuSans-47" transform="translate(678.324219 0)"/>
      <use xlink:href="#DejaVuSans-69" transform="translate(755.814453 0)"/>
      <use xlink:href="#DejaVuSans-42" transform="translate(783.597656 0)"/>
      <use xlink:href="#DejaVuSans-29" transform="translate(852.201172 0)"/>
     </g>
    </g>
   </g>
   <g id="line2d_44">
    <path d="M 504.24422 279.188625
L 504.266478 279.188625
L 504.721767 263.869427
L 504.972873 261.366863
L 505.226284 239.239133
L 505.986148 134.009883
L 506.255786 144.920224
L 506.508375 176.347708
L 506.756934 156.181361
L 507.006549 121.532706
L 507.274833 137.189737
L 507.84209 184.330963
L 508.092535 176.583463
L 508.845283 65.931854
L 509.095876 55.077414
L 509.594556 116.576185
L 509.848763 104.79817
L 510.099223 58.332612
L 510.611858 121.453311
L 510.861741 121.24105
L 511.396527 176.238337
L 511.914027 247.953147
L 512.161916 249.007157
L 512.413931 246.148124
L 512.667733 238.617745
L 512.921011 237.825415
L 513.677471 237.825415
L 513.930862 246.157846
L 514.181929 248.197003
L 514.43377 247.642858
L 515.442749 126.164355
L 515.943008 176.104662
L 516.193512 124.50597
L 516.442762 121.578074
L 516.949709 177.630181
L 517.200911 174.421973
L 517.959041 62.990186
L 518.211473 50.317761
L 518.481862 65.620755
L 519.010172 112.761981
L 519.259694 96.846511
L 519.514125 50.808714
L 519.780779 73.382028
L 520.03154 105.881345
L 520.28305 116.18002
L 520.537085 133.763597
L 521.570376 248.197003
L 521.821947 248.197003
L 522.078437 242.466786
L 522.330773 239.900219
L 523.091085 239.900219
L 523.346331 247.75709
L 523.598297 248.197003
L 523.850515 245.196194
L 524.608207 146.169481
L 524.859371 125.18893
L 525.377566 179.029317
L 525.88098 116.240781
L 526.132381 135.291547
L 526.381664 167.483816
L 526.630771 182.591563
L 527.38499 71.641818
L 527.636218 51.857863
L 527.886069 64.01341
L 528.383003 116.213236
L 528.6333 74.13304
L 528.888029 65.606982
L 529.401941 116.261845
L 529.653284 117.502191
L 530.202799 182.63045
L 530.701187 248.999055
L 530.94941 248.197003
L 531.200485 248.197003
L 531.469505 240.123821
L 531.721498 239.900219
L 531.979324 234.272891
L 532.232944 239.900219
L 532.484949 239.900219
L 532.736609 248.197003
L 532.988397 248.197003
L 533.243528 226.754664
L 534.004495 116.124929
L 534.535773 182.487053
L 534.784889 131.958574
L 535.034865 116.345291
L 535.56238 182.696073
L 535.810809 163.768451
L 536.313517 86.236737
L 536.564429 58.966962
L 536.814768 50.090918
L 537.312855 106.889987
L 537.561841 100.010161
L 537.812674 52.047439
L 538.318179 114.167598
L 538.567023 116.366355
L 539.355338 206.305573
L 539.606382 241.212668
L 539.857337 248.197003
L 540.111141 248.197003
L 540.369825 236.364708
L 540.621551 239.900219
L 541.383077 239.900219
L 541.635202 248.197003
L 541.886771 248.197003
L 542.138418 239.944777
L 542.893501 138.672318
L 543.145788 130.237808
L 543.645876 171.221865
L 543.895726 166.87296
L 544.152754 128.267514
L 544.407556 116.353393
L 544.937194 181.032827
L 545.186906 167.18892
L 545.688109 88.480863
L 545.940681 58.537581
L 546.1915 50.303178
L 546.45541 73.411193
L 546.70371 107.53892
L 546.95543 98.885668
L 547.206023 51.029886
L 547.703339 116.311265
L 547.951434 122.9764
L 548.454035 179.935069
L 548.963599 249.048475
L 549.211921 253.064407
L 549.721641 239.16865
L 549.974007 245.464355
L 550.477631 228.904002
L 550.729255 244.767622
L 550.982823 244.767622
L 551.233742 253.064407
L 551.484991 253.064407
L 551.73617 243.458414
L 552.491265 137.163002
L 552.742633 138.677179
L 552.992219 170.347709
L 553.241283 164.141122
L 553.490718 119.119258
L 553.740457 133.173805
L 554.240213 185.470039
L 554.743566 110.669354
L 555.245579 56.985326
L 555.523817 60.633449
L 556.03609 119.145183
L 556.286792 80.862177
L 556.560285 68.431989
L 556.809665 104.515426
L 557.3323 134.800594
L 558.374409 251.016338
L 558.625524 242.720364
L 558.880854 239.596411
L 559.133251 242.936675
L 559.385065 234.423579
L 559.638885 230.639351
L 559.890937 242.719554
L 560.142599 242.719554
L 560.395112 251.016338
L 560.647137 251.016338
L 560.900087 247.818661
L 561.65785 157.614523
L 561.941497 126.887012
L 562.443688 185.398746
L 562.693811 136.10008
L 562.94486 119.041483
L 563.4566 174.021757
L 563.710891 178.441956
L 564.464112 67.758751
L 564.715644 54.177333
L 564.967821 68.412545
L 565.471858 119.067408
L 565.72363 81.692585
L 565.993007 68.354214
L 566.242759 107.389852
L 566.491775 119.009077
L 566.742881 137.548635
L 567.752296 251.014718
L 568.003215 242.718744
L 568.256942 242.718744
L 568.515253 234.822175
L 568.769608 234.421959
L 569.02167 234.421959
L 569.304197 243.049286
L 569.555691 242.717933
L 569.807047 251.014718
L 570.05881 251.013908
L 570.311156 250.613692
L 571.347578 126.978559
L 571.855427 179.342036
L 572.106969 136.512448
L 572.358231 119.08118
L 572.894354 185.431962
L 573.145309 166.023109
L 573.646563 87.635873
L 573.897846 59.189755
L 574.148951 52.880277
L 574.691069 119.107105
L 575.210405 60.53704
L 575.710106 119.048774
L 575.96288 130.953173
L 576.978603 248.272348
L 577.481352 242.717933
L 577.736956 228.762225
L 577.98893 235.463817
L 578.240697 235.249936
L 578.492317 237.821364
L 579.246897 251.013908
L 579.499046 241.416016
L 580.258846 136.881879
L 580.509585 138.394436
L 580.759061 169.886732
L 581.007784 163.612091
L 581.256567 119.124929
L 581.543056 134.820847
L 581.792503 167.861348
L 582.041296 185.47571
L 582.793809 73.189211
L 583.045286 52.977496
L 583.296112 70.097665
L 583.811864 118.965328
L 584.065416 80.152483
L 584.358842 68.420646
L 584.609041 104.571327
L 584.857339 118.271837
L 585.107865 124.585365
L 585.640528 181.126805
L 586.163477 251.009047
L 586.412529 243.605862
L 586.664533 243.445452
L 586.916248 232.452475
L 587.168347 235.010131
L 587.420179 235.010131
L 587.684647 242.983664
L 587.93678 243.423577
L 588.187664 251.720362
L 588.43871 251.009047
L 588.692482 239.113559
L 589.455996 137.039859
L 589.707251 135.055792
L 589.973702 166.138961
L 590.224879 167.405231
L 590.479079 124.575643
L 590.756689 126.903215
L 591.259746 185.414949
L 591.514231 158.469235
L 592.015907 82.437116
L 592.26721 56.397155
L 592.518373 60.550813
L 593.036144 119.090092
L 593.538392 57.803582
L 594.040481 119.047964
L 594.291905 123.720931
L 594.813409 184.933718
L 595.31764 251.785174
L 595.567923 243.468946
L 595.820035 243.468946
L 596.071948 234.613155
L 596.325084 235.223201
L 596.579612 232.977455
L 596.830495 243.369297
L 597.081599 243.369297
L 597.335129 251.666082
L 597.587272 251.514583
L 598.095735 189.612355
L 598.622745 126.911316
L 599.132503 177.029047
L 599.382306 125.216475
L 599.666276 126.906455
L 600.175814 185.364719
L 600.426595 159.551601
L 600.929191 84.102792
L 601.180137 58.490592
L 601.432669 52.715816
L 601.933158 106.951559
L 602.192202 110.367977
L 602.44245 66.682867
L 602.711754 76.208654
L 602.961775 112.200545
L 603.211775 119.006646
L 603.753218 174.004743
L 604.512826 251.743856
L 605.017628 236.315288
L 605.27016 243.468946
L 605.773124 229.700383
L 606.024119 243.381449
L 606.276932 243.381449
L 606.528965 251.624764
L 606.779969 251.572104
L 607.820603 126.925089
L 608.323773 178.593454
L 608.574675 131.058493
L 608.825737 118.8673
L 609.352232 181.704445
L 609.601845 171.203232
L 610.103188 92.120884
L 610.358307 61.108199
L 610.610446 52.766856
L 611.136374 118.990443
L 611.662525 60.329641
L 612.192723 118.841375
L 612.443658 127.161654
L 613.484809 251.578585
L 613.733507 243.559683
L 613.986914 243.559683
L 614.240721 234.758173
L 614.493246 235.100868
L 614.751662 230.502435
L 615.007541 243.127871
L 615.260527 243.567785
L 615.525093 251.424656
L 615.776078 251.864569
L 616.028804 237.933165
L 616.786116 139.387684
L 617.082558 134.756845
L 617.348069 166.184329
L 617.599472 169.318004
L 617.854217 129.108453
L 618.106158 121.382827
L 618.620994 177.017705
L 618.871799 185.406847
L 619.372406 132.963975
L 620.125567 53.47655
L 620.903314 116.830573
L 621.154837 76.941843
L 621.416499 68.344492
L 621.668476 103.37635
L 622.184101 134.713097
L 623.232899 251.736565
L 623.738764 236.632869
L 623.991514 243.301244
L 624.495076 228.447075
L 624.747513 243.374158
L 624.999474 243.374158
L 625.251557 251.670943
L 625.503477 251.517823
L 625.756008 228.489203
L 626.516207 119.035812
L 627.048758 181.864045
L 627.552983 119.075509
L 627.836822 134.771428
L 628.366084 185.426291
L 628.871236 111.832735
L 629.373846 56.384192
L 629.623471 56.523539
L 630.131681 116.686366
L 630.381481 99.646402
L 630.633153 53.608605
L 631.156175 115.518934
L 631.406107 119.032571
L 631.911799 169.194861
L 632.429871 232.542402
L 632.67977 251.769781
L 633.18779 235.21753
L 633.438361 243.548341
L 633.941213 228.325552
L 634.194202 243.514315
L 634.450685 243.514315
L 634.704289 251.811099
L 634.959048 251.811099
L 635.213921 231.892659
L 635.976315 125.754417
L 636.228805 139.730379
L 636.478004 171.93318
L 636.727561 164.987732
L 636.982308 125.847584
L 637.234415 123.82382
L 637.764555 185.354187
L 638.013915 168.492457
L 638.519345 90.372572
L 638.771441 62.247275
L 639.023342 53.31776
L 639.293076 68.245653
L 639.540835 102.438192
L 639.789198 112.305054
L 640.041123 68.031773
L 640.292696 71.377708
L 640.56935 107.648291
L 641.088991 134.732541
L 642.127978 251.756009
L 642.638645 232.639621
L 642.891567 243.247774
L 643.401579 226.906163
L 643.654414 243.447072
L 643.907819 243.447072
L 644.163043 251.690386
L 644.41489 251.690386
L 644.669143 234.390363
L 645.433983 126.487606
L 645.685794 139.395786
L 645.934428 172.897263
L 646.181777 161.018789
L 646.431449 118.991253
L 646.682963 128.383366
L 647.180529 185.342035
L 647.437049 156.716873
L 647.940997 80.949674
L 648.192818 57.904041
L 648.445105 52.717436
L 648.703516 76.143842
L 648.950682 112.446021
L 649.199546 101.598873
L 649.450482 54.063912
L 649.957501 115.493009
L 650.206002 119.006646
L 650.477752 142.577259
L 651.234461 247.807319
L 651.737677 243.480288
L 651.990123 226.904542
L 652.242308 235.876995
L 652.496079 235.288824
L 652.748957 235.212669
L 653.002426 243.43492
L 653.505846 251.731704
L 653.762495 244.107347
L 654.52252 151.43305
L 654.773747 128.926169
L 655.280544 178.988809
L 655.532674 132.951013
L 655.784332 118.941834
L 656.541939 179.606146
L 657.29719 68.655591
L 657.548578 54.111711
L 657.801715 68.558372
L 658.299521 119.213235
L 658.808071 60.392023
L 659.311399 118.903757
L 659.588303 126.760628
L 660.678402 251.307183
L 660.928226 243.485149
L 661.183841 243.485149
L 661.466782 234.736299
L 661.719214 235.132464
L 661.972549 230.747912
L 662.224554 243.49244
L 662.478997 243.49244
L 662.730987 251.789225
L 662.983926 251.736565
L 663.239754 228.499735
L 663.997644 119.587526
L 664.521873 181.768447
L 665.024348 119.033381
L 665.275878 136.441155
L 665.789699 185.331503
L 666.799759 57.571878
L 667.053107 53.10631
L 667.574145 115.416045
L 667.828689 96.63344
L 668.079304 52.766856
L 668.577502 119.031761
L 668.827797 122.282098
L 669.587516 208.970979
L 669.835604 244.021471
L 670.084618 246.315826
L 670.338853 243.428438
L 670.591599 227.387394
L 670.84522 241.761142
L 671.098651 235.185124
L 671.351941 232.352016
L 671.605113 243.38469
L 671.858431 243.38469
L 672.110886 251.681475
L 672.363631 251.528355
L 673.122367 163.478416
L 673.373437 119.044723
L 673.875256 178.063614
L 674.126112 156.728215
L 674.377486 118.924821
L 674.629685 129.748475
L 675.154024 185.275602
L 675.406851 160.359324
L 675.91176 84.057424
L 676.164272 57.963992
L 676.414697 60.74687
L 676.917914 119.004216
L 677.172314 80.540546
L 677.447521 68.253755
L 677.697978 104.783587
L 678.715414 166.049844
L 679.462581 235.739269
L 679.711421 251.645828
L 680.219778 237.446263
L 680.483541 242.984474
L 680.991602 229.670407
L 681.243315 243.390361
L 681.495182 243.390361
L 681.746796 251.687146
L 681.999034 251.537267
L 682.761646 158.656381
L 683.012892 126.704727
L 683.515719 182.645843
L 684.021139 119.023659
L 684.274302 135.72984
L 684.773696 185.321781
L 685.783235 55.079845
L 686.062207 68.350163
L 686.310616 99.777647
L 686.559516 114.44143
L 686.810599 74.178409
L 687.062216 69.96723
L 687.312165 104.11197
L 687.839627 134.62317
L 688.873974 251.646638
L 689.124172 243.54267
L 689.379806 243.54267
L 689.64494 234.63503
L 689.898281 235.138135
L 690.151653 233.747911
L 690.422391 243.058198
L 690.676935 243.498112
L 690.929002 251.534027
L 691.181157 251.687956
L 691.436336 237.912912
L 692.197382 137.709856
L 692.449092 134.632892
L 692.718405 166.060376
L 692.969414 170.637745
L 693.220713 128.824089
L 693.472263 122.905106
L 693.990876 185.336364
L 694.239699 166.656649
L 694.748548 88.536764
L 694.999768 60.304526
L 695.250822 52.604825
L 695.782714 118.935353
L 696.28727 60.488431
L 696.787377 119.000165
L 697.042955 127.981529
L 698.056567 251.737375
L 698.307353 243.312586
L 698.562274 243.312586
L 698.824302 234.617206
L 699.077457 235.120312
L 699.335337 231.965573
L 699.587643 243.373348
L 699.840033 243.373348
L 700.093819 251.670132
L 700.346799 251.670132
L 700.601152 230.517828
L 701.363543 123.363653
L 701.877167 173.952894
L 702.126851 156.396862
L 702.378434 119.021229
L 702.631498 134.36149
L 703.131132 185.372011
L 703.388936 158.156516
L 703.891734 81.747675
L 704.143596 54.798721
L 704.394383 65.206766
L 704.892361 118.900516
L 705.144175 81.278596
L 705.420817 68.403633
L 705.670502 103.581319
L 706.191169 134.772238
L 707.238525 251.795706
L 707.489174 243.478668
L 707.74828 238.773295
L 708.021255 242.973942
L 708.526935 229.918314
L 708.77891 243.433299
L 709.030852 243.433299
L 709.282878 251.730084
L 709.536849 251.677424
L 709.789051 229.562657
L 710.550671 119.948855
L 710.818726 142.535131
L 711.068398 173.962615
L 711.316141 153.465726
L 711.566939 119.030951
L 711.849502 134.72687
L 712.348592 185.381733
L 713.361959 57.140876
L 713.613151 58.066071
L 714.132386 118.6599
L 714.382329 96.879727
L 714.635357 52.659915
L 715.148284 115.479237
L 715.398783 118.992874
L 715.652567 138.923466
L 716.645349 251.730084
L 717.153748 233.094927
L 717.413953 243.01526
L 717.919661 229.110591
L 718.172077 243.367677
L 718.42542 243.367677
L 718.679379 251.664461
L 718.932948 251.664461
L 719.186682 230.885638
L 719.946565 123.250232
L 720.228445 142.625869
L 720.477647 176.769798
L 720.976827 119.068218
L 721.243713 134.764137
L 721.492428 168.699047
L 721.740889 185.419
L 722.498434 73.07903
L 722.750461 55.113061
L 723.046313 60.528939
L 723.548801 119.040673
L 723.801344 79.50679
L 724.052902 67.143034
L 724.572825 119.052015
L 724.828271 127.148691
L 725.875859 251.789225
L 726.124566 243.525657
L 726.380044 243.525657
L 726.679272 234.617206
L 726.931772 235.280722
L 727.197743 230.414939
L 727.453626 243.426818
L 727.707486 243.426818
L 727.960786 251.723603
L 728.213054 251.670132
L 728.469472 236.134624
L 729.233721 129.568621
L 729.486322 135.357169
L 729.735338 167.03013
L 729.984426 166.50596
L 730.236697 123.997193
L 730.488172 125.106294
L 730.998773 184.63072
L 731.249364 168.725782
L 731.754702 90.712837
L 732.007248 61.357726
L 732.259192 53.016383
L 732.511343 68.266717
L 732.759403 102.2154
L 733.009807 111.148155
L 733.261488 65.91241
L 733.512896 74.372846
L 733.774959 107.562414
L 734.300664 134.646664
L 735.313782 251.670132
L 735.566062 243.512694
L 735.822219 231.321501
L 736.076944 242.165409
L 736.329774 235.108159
L 736.583979 231.694982
L 736.83649 243.575076
L 737.091578 243.575076
L 737.345637 251.81839
L 737.59968 251.717121
L 738.107569 194.948838
L 738.365811 167.465182
L 738.618671 122.603729
L 738.871088 142.179474
L 739.121579 171.268854
L 739.373249 165.637476
L 739.627567 123.77035
L 739.879514 125.214854
L 740.400441 185.362289
L 740.649836 167.002585
L 741.155992 89.952102
L 741.409157 61.559454
L 741.66115 52.89729
L 741.914543 68.199474
L 742.167737 99.626958
L 742.417901 116.803028
L 742.670338 77.50247
L 742.9236 68.287781
L 743.444016 119.02609
L 743.70975 126.882961
L 744.763773 251.7633
L 745.272882 238.129223
L 745.526325 239.321769
L 745.778583 235.232923
L 746.033996 228.442214
L 746.287105 243.432489
L 746.540923 243.432489
L 746.794503 251.729274
L 747.046555 251.729274
L 747.301444 236.832166
L 748.064977 129.08982
L 748.317519 135.251849
L 748.566706 166.664751
L 748.816653 165.654489
L 749.068657 121.274267
L 749.362905 126.814098
L 749.873644 185.325832
L 750.126665 159.212146
L 750.633438 83.819239
L 750.885257 60.185434
L 751.13696 52.753083
L 751.39605 76.180299
L 751.644116 112.2289
L 751.892278 101.633709
L 752.144608 54.045278
L 752.654624 115.475996
L 752.903705 118.989633
L 753.176467 134.703375
L 753.967463 240.356335
L 754.215736 247.098435
L 754.468883 243.462465
L 756.20054 243.462465
L 756.446586 231.324741
L 756.697665 241.313127
L 757.203618 229.5262
L 757.455861 243.417906
L 757.710036 243.417906
L 757.963808 251.000135
L 758.215193 251.000135
L 758.467591 236.911562
L 759.232375 125.961006
L 759.489728 142.561056
L 759.746435 173.98854
L 759.995393 155.202695
L 760.245739 119.003406
L 760.790524 158.269937
L 761.04121 185.354187
L 761.293109 160.202964
L 761.797776 84.168415
L 762.049482 57.540282
L 762.300917 52.727968
L 763.086986 118.965328
L 763.595142 60.559725
L 764.096301 119.071459
L 764.405978 126.92833
L 765.421316 251.000135
L 765.674382 242.704161
L 765.927803 242.704161
L 766.203264 234.756553
L 766.455565 234.407376
L 766.710284 233.245616
L 766.978829 243.007969
L 767.229921 242.703351
L 767.501064 250.560222
L 767.752391 251.000135
L 768.005825 247.090333
L 768.765122 144.053359
L 769.017409 129.624521
L 769.515316 176.065775
L 769.764432 123.290739
L 770.014671 126.434136
L 770.521539 185.417379
L 770.77339 165.560511
L 771.27747 87.066335
L 771.529769 59.047978
L 771.78134 52.7385
L 772.307523 115.556201
L 772.556324 95.949671
L 772.807458 54.666666
L 773.311915 119.02771
L 773.559862 119.057686
L 773.832768 142.598323
L 774.579542 246.490009
L 774.828111 249.801918
L 775.342137 233.417368
L 775.601291 243.003108
L 776.113286 226.842971
L 776.36573 242.703351
L 776.617884 242.703351
L 776.872044 251.000135
L 777.124642 251.000135
L 777.378932 248.519444
L 778.1387 150.294784
L 778.404618 126.894303
L 778.913072 177.493266
L 779.162796 125.413342
L 779.412922 124.011776
L 779.955134 185.401176
L 780.204828 167.115196
L 780.710056 89.583483
L 780.963644 60.870013
L 781.215966 52.742551
L 781.473758 76.224857
L 781.723424 110.018801
L 781.974147 105.388772
L 782.226145 62.612654
L 782.498865 76.219996
L 782.748399 114.295602
L 782.998379 119.017988
L 783.257334 134.73173
L 784.2748 251.000135
L 784.527627 242.704161
L 784.781142 241.518906
L 785.036491 235.2151
L 785.289182 234.407376
L 785.543726 234.407376
L 785.825469 243.082503
L 786.076344 242.703351
L 786.343147 250.560222
L 786.594844 251.000135
L 786.847869 249.364435
L 787.861493 121.912668
L 788.38414 181.971795
L 788.883472 118.702028
L 789.134379 138.933998
L 789.41514 173.682302
L 789.663397 179.171904
L 790.419897 68.221349
L 790.671846 54.26564
L 790.921864 66.058238
L 791.417826 119.102244
L 791.668187 78.144922
L 791.958133 68.1217
L 792.233286 107.406055
L 792.747771 134.490305
L 793.754414 251.000135
L 794.006401 242.704161
L 794.262559 238.522147
L 794.515102 238.679317
L 794.765566 234.407376
L 795.018861 232.671217
L 795.274517 243.024172
L 795.525322 242.703351
L 795.798966 250.560222
L 796.050769 251.000135
L 796.304692 251.000135
L 797.341931 126.835162
L 797.849977 177.861885
L 798.100803 126.637484
L 798.352179 123.565381
L 798.875746 185.342035
L 799.126391 166.693106
L 799.630807 88.787101
L 799.883064 61.677737
L 800.13485 53.015573
L 800.4135 76.228098
L 800.66258 111.957499
L 800.911651 102.183804
L 801.164077 55.932126
L 801.681141 115.400652
L 801.931278 118.914289
L 802.208183 142.484902
L 802.989239 248.137862
L 803.492147 242.704161
L 803.751807 227.2602
L 804.005681 237.532139
L 804.513121 231.745211
L 804.764884 242.703351
L 805.01844 242.703351
L 805.271871 251.000135
L 805.525687 251.000135
L 805.778972 240.528898
L 806.544381 134.123305
L 806.812634 134.512989
L 807.062037 167.786003
L 807.310098 163.085491
L 807.560486 119.02609
L 807.812919 127.656658
L 808.31215 185.376872
L 808.563477 156.610743
L 809.066923 82.233768
L 809.318315 55.552164
L 809.608639 60.27293
L 810.112289 118.784664
L 810.365871 81.195961
L 810.617054 66.044465
L 811.140215 118.993684
L 811.399543 126.850555
L 812.444391 251.000135
L 812.696839 242.704161
L 812.950174 242.704161
L 813.2087 232.121122
L 813.461527 234.432491
L 813.715013 234.407376
L 813.988207 234.652043
L 814.240861 242.703351
L 814.493482 244.38766
L 814.74907 251.000135
L 815.003168 251.000135
L 815.260155 233.330682
L 816.025742 121.524604
L 816.298739 142.508396
L 816.546127 176.705796
L 817.044351 119.164626
L 817.306866 134.860545
L 817.555151 169.66556
L 817.803721 185.515408
L 818.559709 73.121969
L 818.811815 56.492753
L 819.06954 60.411466
L 819.576708 118.9232
L 819.82953 79.356102
L 820.081027 67.769283
L 820.595298 119.13222
L 820.854125 126.989091
L 821.385363 193.357696
L 821.633192 231.545103
L 821.880702 251.000135
L 822.131796 242.704161
L 822.385513 242.704161
L 822.682303 234.609915
L 822.934774 234.407376
L 823.187981 234.407376
L 823.440219 242.512965
L 823.691287 242.703351
L 823.944939 249.7606
L 824.196691 251.000135
L 824.449765 251.000135
L 824.703319 226.134896
L 825.466237 123.438187
L 825.993502 185.26345
L 826.241606 136.606426
L 826.493765 118.961278
L 826.763853 142.514067
L 827.011488 177.78168
L 827.259782 177.880519
L 827.763968 98.156529
L 828.016507 69.068769
L 828.268376 53.508956
L 828.539959 68.278869
L 828.788931 102.342594
L 829.038918 118.933732
L 829.579342 60.417137
L 830.081198 118.928872
L 830.336343 126.50786
L 830.6003 150.356356
L 831.371422 251.666082
L 831.621052 243.2818
L 831.874486 242.704161
L 832.128567 229.680939
L 832.38071 235.529439
L 832.634961 234.407376
L 832.927531 234.681208
L 833.179484 242.674185
L 833.432735 244.536729
L 833.684711 250.97097
L 833.938799 250.97097
L 834.193891 234.472189
L 834.958891 124.804917
L 835.211707 140.180825
L 835.461527 170.722
L 835.712475 167.853246
L 835.964961 128.499218
L 836.217296 121.194061
L 836.746922 181.765206
L 837.00066 170.628833
L 837.50568 93.097119
L 837.758428 63.421188
L 838.010111 52.994509
L 838.288969 76.262935
L 838.537259 111.895117
L 838.786211 101.95129
L 839.038126 54.202448
L 839.548913 115.488959
L 839.797875 119.002595
L 840.328175 174.000693
L 840.834154 247.882664
L 841.083268 248.845936
L 841.335922 242.674995
L 841.591581 232.929656
L 841.844368 243.085743
L 842.351559 226.908593
L 842.604069 242.674185
L 842.856254 242.674185
L 843.109061 250.457332
L 843.361496 231.908862
L 844.011401 231.881317
L 844.011401 231.881317
" clip-path="url(#p0a36e65a47)" style="fill: none; stroke: #0f766e; stroke-width: 1.6; stroke-linecap: square"/>
   </g>
   <g id="patch_14">
    <path d="M 487.255861 290.64351
L 487.255861 38.636032
" style="fill: none; stroke: #000000; stroke-width: 0.8; stroke-linejoin: miter; stroke-linecap: square"/>
   </g>
   <g id="patch_15">
    <path d="M 860.99976 290.64351
L 860.99976 38.636032
" style="fill: none; stroke: #000000; stroke-width: 0.8; stroke-linejoin: miter; stroke-linecap: square"/>
   </g>
   <g id="patch_16">
    <path d="M 487.255861 290.64351
L 860.99976 290.64351
" style="fill: none; stroke: #000000; stroke-width: 0.8; stroke-linejoin: miter; stroke-linecap: square"/>
   </g>
   <g id="patch_17">
    <path d="M 487.255861 38.636032
L 860.99976 38.636032
" style="fill: none; stroke: #000000; stroke-width: 0.8; stroke-linejoin: miter; stroke-linecap: square"/>
   </g>
   <g id="text_37">
    <!-- forward -->
    <g style="fill: #475569" transform="translate(658.793754 49.754932) scale(0.08 -0.08)">
     <use xlink:href="#DejaVuSans-66"/>
     <use xlink:href="#DejaVuSans-6f" transform="translate(35.205078 0)"/>
     <use xlink:href="#DejaVuSans-72" transform="translate(96.386719 0)"/>
     <use xlink:href="#DejaVuSans-77" transform="translate(137.5 0)"/>
     <use xlink:href="#DejaVuSans-61" transform="translate(219.287109 0)"/>
     <use xlink:href="#DejaVuSans-72" transform="translate(280.566406 0)"/>
     <use xlink:href="#DejaVuSans-64" transform="translate(319.929688 0)"/>
    </g>
   </g>
   <g id="PathCollection_2">
    <g clip-path="url(#p0a36e65a47)">
     <use xlink:href="#m7879c2252d" x="536.814768" y="50.090918" style="fill: #0f766e; stroke: #0f766e"/>
    </g>
   </g>
   <g id="text_38">
    <!-- 5.18 GiB -->
    <g style="fill: #0f766e" transform="translate(541.814768 43.090918) scale(0.08 -0.08)">
     <use xlink:href="#DejaVuSans-35"/>
     <use xlink:href="#DejaVuSans-2e" transform="translate(63.623047 0)"/>
     <use xlink:href="#DejaVuSans-31" transform="translate(95.410156 0)"/>
     <use xlink:href="#DejaVuSans-38" transform="translate(159.033203 0)"/>
     <use xlink:href="#DejaVuSans-20" transform="translate(222.65625 0)"/>
     <use xlink:href="#DejaVuSans-47" transform="translate(254.443359 0)"/>
     <use xlink:href="#DejaVuSans-69" transform="translate(331.933594 0)"/>
     <use xlink:href="#DejaVuSans-42" transform="translate(359.716797 0)"/>
    </g>
   </g>
   <g id="text_39">
    <!-- large, B=1, FP32, steps=1 -->
    <g style="fill: #334155" transform="translate(490.9933 285.60336) scale(0.08 -0.08)">
     <use xlink:href="#DejaVuSans-6c"/>
     <use xlink:href="#DejaVuSans-61" transform="translate(27.783203 0)"/>
     <use xlink:href="#DejaVuSans-72" transform="translate(89.0625 0)"/>
     <use xlink:href="#DejaVuSans-67" transform="translate(128.425781 0)"/>
     <use xlink:href="#DejaVuSans-65" transform="translate(191.902344 0)"/>
     <use xlink:href="#DejaVuSans-2c" transform="translate(253.425781 0)"/>
     <use xlink:href="#DejaVuSans-20" transform="translate(285.212891 0)"/>
     <use xlink:href="#DejaVuSans-42" transform="translate(317 0)"/>
     <use xlink:href="#DejaVuSans-3d" transform="translate(385.603516 0)"/>
     <use xlink:href="#DejaVuSans-31" transform="translate(469.392578 0)"/>
     <use xlink:href="#DejaVuSans-2c" transform="translate(533.015625 0)"/>
     <use xlink:href="#DejaVuSans-20" transform="translate(564.802734 0)"/>
     <use xlink:href="#DejaVuSans-46" transform="translate(596.589844 0)"/>
     <use xlink:href="#DejaVuSans-50" transform="translate(654.109375 0)"/>
     <use xlink:href="#DejaVuSans-33" transform="translate(714.412109 0)"/>
     <use xlink:href="#DejaVuSans-32" transform="translate(778.035156 0)"/>
     <use xlink:href="#DejaVuSans-2c" transform="translate(841.658203 0)"/>
     <use xlink:href="#DejaVuSans-20" transform="translate(873.445312 0)"/>
     <use xlink:href="#DejaVuSans-73" transform="translate(905.232422 0)"/>
     <use xlink:href="#DejaVuSans-74" transform="translate(957.332031 0)"/>
     <use xlink:href="#DejaVuSans-65" transform="translate(996.541016 0)"/>
     <use xlink:href="#DejaVuSans-70" transform="translate(1058.064453 0)"/>
     <use xlink:href="#DejaVuSans-73" transform="translate(1121.541016 0)"/>
     <use xlink:href="#DejaVuSans-3d" transform="translate(1173.640625 0)"/>
     <use xlink:href="#DejaVuSans-31" transform="translate(1257.429688 0)"/>
    </g>
   </g>
   <g id="text_40">
    <!-- S=2048 -->
    <g transform="translate(650.020936 32.636032) scale(0.12 -0.12)">
     <use xlink:href="#DejaVuSans-53"/>
     <use xlink:href="#DejaVuSans-3d" transform="translate(63.476562 0)"/>
     <use xlink:href="#DejaVuSans-32" transform="translate(147.265625 0)"/>
     <use xlink:href="#DejaVuSans-30" transform="translate(210.888672 0)"/>
     <use xlink:href="#DejaVuSans-34" transform="translate(274.511719 0)"/>
     <use xlink:href="#DejaVuSans-38" transform="translate(338.134766 0)"/>
    </g>
   </g>
  </g>
  <g id="text_41">
   <!-- Large model CPU RSS timeline: inference-only forward -->
   <g transform="translate(227.673047 14.397896) scale(0.15 -0.15)">
    <defs>
     <path id="DejaVuSans-4c" d="M 628 4666
L 1259 4666
L 1259 531
L 3531 531
L 3531 0
L 628 0
L 628 4666
z
" transform="scale(0.015625)"/>
     <path id="DejaVuSans-43" d="M 4122 4306
L 4122 3641
Q 3803 3938 3442 4084
Q 3081 4231 2675 4231
Q 1875 4231 1450 3742
Q 1025 3253 1025 2328
Q 1025 1406 1450 917
Q 1875 428 2675 428
Q 3081 428 3442 575
Q 3803 722 4122 1019
L 4122 359
Q 3791 134 3420 21
Q 3050 -91 2638 -91
Q 1578 -91 968 557
Q 359 1206 359 2328
Q 359 3453 968 4101
Q 1578 4750 2638 4750
Q 3056 4750 3426 4639
Q 3797 4528 4122 4306
z
" transform="scale(0.015625)"/>
     <path id="DejaVuSans-55" d="M 556 4666
L 1191 4666
L 1191 1831
Q 1191 1081 1462 751
Q 1734 422 2344 422
Q 2950 422 3222 751
Q 3494 1081 3494 1831
L 3494 4666
L 4128 4666
L 4128 1753
Q 4128 841 3676 375
Q 3225 -91 2344 -91
Q 1459 -91 1007 375
Q 556 841 556 1753
L 556 4666
z
" transform="scale(0.015625)"/>
     <path id="DejaVuSans-6e" d="M 3513 2113
L 3513 0
L 2938 0
L 2938 2094
Q 2938 2591 2744 2837
Q 2550 3084 2163 3084
Q 1697 3084 1428 2787
Q 1159 2491 1159 1978
L 1159 0
L 581 0
L 581 3500
L 1159 3500
L 1159 2956
Q 1366 3272 1645 3428
Q 1925 3584 2291 3584
Q 2894 3584 3203 3211
Q 3513 2838 3513 2113
z
" transform="scale(0.015625)"/>
     <path id="DejaVuSans-3a" d="M 750 794
L 1409 794
L 1409 0
L 750 0
L 750 794
z
M 750 3309
L 1409 3309
L 1409 2516
L 750 2516
L 750 3309
z
" transform="scale(0.015625)"/>
     <path id="DejaVuSans-2d" d="M 313 2009
L 1997 2009
L 1997 1497
L 313 1497
L 313 2009
z
" transform="scale(0.015625)"/>
     <path id="DejaVuSans-79" d="M 2059 -325
Q 1816 -950 1584 -1140
Q 1353 -1331 966 -1331
L 506 -1331
L 506 -850
L 844 -850
Q 1081 -850 1212 -737
Q 1344 -625 1503 -206
L 1606 56
L 191 3500
L 800 3500
L 1894 763
L 2988 3500
L 3597 3500
L 2059 -325
z
" transform="scale(0.015625)"/>
    </defs>
    <use xlink:href="#DejaVuSans-4c"/>
    <use xlink:href="#DejaVuSans-61" transform="translate(55.712891 0)"/>
    <use xlink:href="#DejaVuSans-72" transform="translate(116.992188 0)"/>
    <use xlink:href="#DejaVuSans-67" transform="translate(156.355469 0)"/>
    <use xlink:href="#DejaVuSans-65" transform="translate(219.832031 0)"/>
    <use xlink:href="#DejaVuSans-20" transform="translate(281.355469 0)"/>
    <use xlink:href="#DejaVuSans-6d" transform="translate(313.142578 0)"/>
    <use xlink:href="#DejaVuSans-6f" transform="translate(410.554688 0)"/>
    <use xlink:href="#DejaVuSans-64" transform="translate(471.736328 0)"/>
    <use xlink:href="#DejaVuSans-65" transform="translate(535.212891 0)"/>
    <use xlink:href="#DejaVuSans-6c" transform="translate(596.736328 0)"/>
    <use xlink:href="#DejaVuSans-20" transform="translate(624.519531 0)"/>
    <use xlink:href="#DejaVuSans-43" transform="translate(656.306641 0)"/>
    <use xlink:href="#DejaVuSans-50" transform="translate(726.130859 0)"/>
    <use xlink:href="#DejaVuSans-55" transform="translate(786.433594 0)"/>
    <use xlink:href="#DejaVuSans-20" transform="translate(859.626953 0)"/>
    <use xlink:href="#DejaVuSans-52" transform="translate(891.414062 0)"/>
    <use xlink:href="#DejaVuSans-53" transform="translate(960.896484 0)"/>
    <use xlink:href="#DejaVuSans-53" transform="translate(1024.373047 0)"/>
    <use xlink:href="#DejaVuSans-20" transform="translate(1087.849609 0)"/>
    <use xlink:href="#DejaVuSans-74" transform="translate(1119.636719 0)"/>
    <use xlink:href="#DejaVuSans-69" transform="translate(1158.845703 0)"/>
    <use xlink:href="#DejaVuSans-6d" transform="translate(1186.628906 0)"/>
    <use xlink:href="#DejaVuSans-65" transform="translate(1284.041016 0)"/>
    <use xlink:href="#DejaVuSans-6c" transform="translate(1345.564453 0)"/>
    <use xlink:href="#DejaVuSans-69" transform="translate(1373.347656 0)"/>
    <use xlink:href="#DejaVuSans-6e" transform="translate(1401.130859 0)"/>
    <use xlink:href="#DejaVuSans-65" transform="translate(1464.509766 0)"/>
    <use xlink:href="#DejaVuSans-3a" transform="translate(1526.033203 0)"/>
    <use xlink:href="#DejaVuSans-20" transform="translate(1559.724609 0)"/>
    <use xlink:href="#DejaVuSans-69" transform="translate(1591.511719 0)"/>
    <use xlink:href="#DejaVuSans-6e" transform="translate(1619.294922 0)"/>
    <use xlink:href="#DejaVuSans-66" transform="translate(1682.673828 0)"/>
    <use xlink:href="#DejaVuSans-65" transform="translate(1717.878906 0)"/>
    <use xlink:href="#DejaVuSans-72" transform="translate(1779.402344 0)"/>
    <use xlink:href="#DejaVuSans-65" transform="translate(1818.265625 0)"/>
    <use xlink:href="#DejaVuSans-6e" transform="translate(1879.789062 0)"/>
    <use xlink:href="#DejaVuSans-63" transform="translate(1943.167969 0)"/>
    <use xlink:href="#DejaVuSans-65" transform="translate(1998.148438 0)"/>
    <use xlink:href="#DejaVuSans-2d" transform="translate(2059.671875 0)"/>
    <use xlink:href="#DejaVuSans-6f" transform="translate(2097.630859 0)"/>
    <use xlink:href="#DejaVuSans-6e" transform="translate(2158.8125 0)"/>
    <use xlink:href="#DejaVuSans-6c" transform="translate(2222.191406 0)"/>
    <use xlink:href="#DejaVuSans-79" transform="translate(2249.974609 0)"/>
    <use xlink:href="#DejaVuSans-20" transform="translate(2309.154297 0)"/>
    <use xlink:href="#DejaVuSans-66" transform="translate(2340.941406 0)"/>
    <use xlink:href="#DejaVuSans-6f" transform="translate(2376.146484 0)"/>
    <use xlink:href="#DejaVuSans-72" transform="translate(2437.328125 0)"/>
    <use xlink:href="#DejaVuSans-77" transform="translate(2478.441406 0)"/>
    <use xlink:href="#DejaVuSans-61" transform="translate(2560.228516 0)"/>
    <use xlink:href="#DejaVuSans-72" transform="translate(2621.507812 0)"/>
    <use xlink:href="#DejaVuSans-64" transform="translate(2660.871094 0)"/>
   </g>
  </g>
 </g>
 <defs>
  <clipPath id="pd4410654b9">
   <rect x="45.94399" y="38.636032" width="373.743899" height="252.007477"/>
  </clipPath>
  <clipPath id="p0a36e65a47">
   <rect x="487.255861" y="38.636032" width="373.743899" height="252.007477"/>
  </clipPath>
 </defs>
</svg>
